<svg width="32" height="32" viewBox="0 0 32 32" fill="none" xmlns="http://www.w3.org/2000/svg">
<path d="M16 0C7.15675 0 0 7.15606 0 16C0 24.8433 7.15606 32 16 32C24.8433 32 32 24.8439 32 16C32 7.15675 24.8439 0 16 0ZM9.80912 3.29706C9.32494 4.61575 8.9185 5.95625 8.59044 7.3155C7.63163 7.02419 6.68844 6.67488 5.76275 6.26788C6.93488 5.03644 8.30075 4.03375 9.80912 3.29706ZM4.52112 7.765C5.71931 8.31987 6.94556 8.78375 8.19625 9.15581C7.83337 11.0929 7.62587 13.0644 7.57662 15.0625H1.90638C2.07906 12.4099 2.983 9.89937 4.52112 7.765ZM4.52112 24.235C2.983 22.1006 2.07906 19.5901 1.90638 16.9375H7.57662C7.62587 18.9356 7.83337 20.9071 8.19625 22.8442C6.94556 23.2162 5.71937 23.6801 4.52112 24.235ZM5.76275 25.7322C6.68844 25.3251 7.63156 24.9758 8.59044 24.6846C8.91856 26.0438 9.32494 27.3843 9.80912 28.703C8.3015 27.9667 6.9355 26.9642 5.76275 25.7322ZM15.0625 30.0936C14.0779 30.0296 13.1127 29.8652 12.1791 29.6046C11.4375 27.8471 10.8456 26.0451 10.4042 24.2069C11.9241 23.8671 13.4791 23.6684 15.0625 23.6122V30.0936ZM15.0625 21.7361C13.347 21.7928 11.6622 22.0052 10.0156 22.372C9.68844 20.5889 9.49994 18.7751 9.45225 16.9375H15.0625V21.7361ZM15.0625 15.0625H9.45225C9.49994 13.2249 9.68844 11.4111 10.0156 9.628C11.6622 9.99475 13.347 10.2073 15.0625 10.2639V15.0625ZM15.0625 8.38781C13.4791 8.33162 11.9241 8.13294 10.4042 7.79313C10.8456 5.95494 11.4375 4.15294 12.1791 2.39544C13.1127 2.13481 14.0779 1.97044 15.0625 1.90638V8.38781ZM27.4789 7.765C29.017 9.89937 29.9209 12.4099 30.0936 15.0625H24.4234C24.3741 13.0644 24.1666 11.0929 23.8037 9.15581C25.0544 8.78375 26.2806 8.31987 27.4789 7.765ZM26.2372 6.26781C25.3116 6.67488 24.3684 7.02419 23.4096 7.31544C23.0814 5.95619 22.6751 4.61569 22.1909 3.297C23.6985 4.03331 25.0645 5.03581 26.2372 6.26781ZM16.9375 1.90638C17.9221 1.97044 18.8873 2.13481 19.8209 2.39544C20.5625 4.15294 21.1544 5.95494 21.5958 7.79313C20.0759 8.13294 18.5209 8.33162 16.9375 8.38781V1.90638ZM16.9375 10.2639C18.653 10.2073 20.3378 9.99475 21.9844 9.628C22.3116 11.4111 22.5001 13.2249 22.5478 15.0625H16.9375V10.2639ZM19.8209 29.6045C18.8873 29.8652 17.9221 30.0296 16.9375 30.0936V23.6122C18.5209 23.6684 20.0759 23.8671 21.5958 24.2069C21.1543 26.0451 20.5625 27.8471 19.8209 29.6045ZM16.9375 21.7361V16.9375H22.5478C22.5001 18.7751 22.3116 20.5889 21.9844 22.372C20.3378 22.0052 18.653 21.7928 16.9375 21.7361ZM22.1909 28.7029C22.6751 27.3843 23.0815 26.0437 23.4096 24.6845C24.3684 24.9758 25.3116 25.3251 26.2372 25.7321C25.0651 26.9636 23.6992 27.9663 22.1909 28.7029ZM27.4789 24.235C26.2807 23.6801 25.0544 23.2162 23.8037 22.8442C24.1666 20.9071 24.3741 18.9356 24.4234 16.9375H30.0936C29.9209 19.5901 29.017 22.1006 27.4789 24.235Z" fill="white"/>
</svg>
