<svg width="64" height="64" viewBox="0 0 64 64" fill="none" xmlns="http://www.w3.org/2000/svg">
<ellipse cx="32" cy="32" rx="32" ry="32" fill="url(#paint0_linear_464_661)"/>
<ellipse cx="32" cy="32" rx="32" ry="32" fill="white" fill-opacity="0.75"/>
<path d="M48 29.4194H46.8402L45.1116 30.3289C44.9171 30.2215 44.7147 30.1305 44.4965 30.0759L42.3221 29.5318V29.2845C43.284 28.6132 43.871 27.504 43.871 26.3226V25.4204C43.871 23.4153 42.2999 21.7374 40.369 21.6789C40.2709 21.6764 40.1744 21.6799 40.0774 21.6847L40.6411 20.3649L37.908 17.6326L36.2969 18.6812C35.6847 18.3364 35.0373 18.068 34.3649 17.8798L33.967 16H30.0335L29.6356 17.8803C28.9632 18.0685 28.3153 18.3369 27.7036 18.6817L26.0925 17.6331L23.3616 20.3639L23.9158 21.6847C23.8947 21.6837 23.8745 21.6799 23.8533 21.6794C22.8649 21.6507 21.934 22.0113 21.2268 22.6978C20.5186 23.3838 20.129 24.3044 20.129 25.2903V26.3226C20.129 27.504 20.7155 28.6127 21.6774 29.284V29.5318L20.2591 29.8863L17.6883 28.3871H16V39.0819L21.0776 40.7742H22.0665L22.19 40.3417L23.7465 41.276C23.7719 42.1222 24.4506 42.8032 25.2961 42.8329C25.3259 43.6749 26.0025 44.3516 26.8445 44.3813C26.8742 45.2233 27.5509 45.8999 28.3929 45.9297C28.4236 46.7913 29.1293 47.4839 29.998 47.4839C30.3206 47.4839 30.6368 47.3833 30.9027 47.2041L31.3599 47.6079C31.6464 47.8601 32.0154 48 32.3984 48H32.494C33.3528 48 34.0517 47.3057 34.0625 46.4496C34.912 46.4388 35.6 45.7508 35.6109 44.9012C36.4609 44.8904 37.1494 44.2014 37.1593 43.3513C38.0171 43.3311 38.7097 42.6303 38.7097 41.7676C38.7097 41.7157 38.7072 41.6646 38.7019 41.6129L48 36.9642V29.4194ZM42.8387 25.4204V26.3226C42.8387 27.2387 42.3438 28.0945 41.5469 28.5559L41.2888 28.7051L41.2908 30.3385L43.8695 30.9826L38.1935 33.97V32.5796C38.1935 31.8858 37.9133 31.2505 37.4544 30.781L39.2258 30.3385V28.7039L38.9682 28.5549C38.1719 28.0945 37.6774 27.2387 37.6774 26.3226V25.2903C37.6774 24.5864 37.9556 23.9282 38.4614 23.438C38.9667 22.9481 39.6371 22.684 40.338 22.7112C41.7167 22.7525 42.8387 23.968 42.8387 25.4204ZM32.7782 33.5643L30.4418 32.8175C29.377 32.4763 28.2245 32.4254 27.1346 32.6668L26.8387 32.7324V32.5796C26.8387 31.8679 27.3213 31.25 28.0113 31.0771L30.9677 30.3385V28.7039L30.7102 28.5549C29.9138 28.0945 29.4194 27.2387 29.4194 26.3226V25.2903C29.4194 24.5864 29.6976 23.9282 30.2034 23.438C30.7087 22.9481 31.3833 22.684 32.0799 22.7112C33.4587 22.7525 34.5806 23.968 34.5806 25.4204V26.3226C34.5806 27.2387 34.0857 28.0945 33.2888 28.5559L33.0307 28.7051L33.0328 30.3385L35.9887 31.0771C36.6787 31.25 37.1613 31.8679 37.1613 32.5796V34.5136L37.0338 34.5806H36.7175L33.5444 33.6739C33.2944 33.6031 33.0368 33.5741 32.7782 33.5643ZM26.9544 23.7248C27.9236 21.8468 29.8745 20.6452 32 20.6452C34.1053 20.6452 36.0479 21.8306 37.0244 23.6832C36.7787 24.1759 36.6452 24.7215 36.6452 25.2903V26.3226C36.6452 27.504 37.2316 28.6127 38.1935 29.284V29.5318L36.129 30.0486L34.064 29.5318V29.2845C35.026 28.6132 35.6129 27.504 35.6129 26.3226V25.4204C35.6129 23.4153 34.0418 21.7374 32.1109 21.6789C31.123 21.6499 30.1915 22.0108 29.4844 22.6973C28.7767 23.3838 28.3871 24.3044 28.3871 25.2903V26.3226C28.3871 27.504 28.9735 28.6127 29.9355 29.284V29.5318L27.871 30.0486L25.8059 29.5318V29.2845C26.7679 28.6132 27.3548 27.504 27.3548 26.3226V25.4204C27.3548 24.813 27.2087 24.2364 26.9544 23.7248ZM24.5806 20.6033L26.2296 18.9544L27.6809 19.8989L27.9587 19.7286C28.6545 19.3022 29.4065 18.9899 30.1935 18.8017L30.5111 18.7256L30.8702 17.0323H33.1303L33.4884 18.7251L33.8059 18.8009C34.593 18.9894 35.345 19.3017 36.0408 19.7281L36.3185 19.8984L37.7699 18.9539L39.4168 20.6013L38.8314 21.972C38.433 22.1434 38.0635 22.3846 37.7419 22.6963C37.7208 22.717 37.7026 22.7392 37.682 22.7603C36.466 20.8274 34.3163 19.6129 32 19.6129C29.6671 19.6129 27.5113 20.8387 26.2984 22.7913C25.9738 22.4516 25.5877 22.1764 25.1598 21.9841L24.5806 20.6033ZM22.7097 30.3385V28.7039L22.4521 28.5549C21.6557 28.0945 21.1613 27.2387 21.1613 26.3226V25.2903C21.1613 24.5864 21.4395 23.9282 21.9453 23.438C22.4506 22.9481 23.1225 22.684 23.8218 22.7112C25.2006 22.7525 26.3226 23.968 26.3226 25.4204V26.3226C26.3226 27.2387 25.8276 28.0945 25.0307 28.5559L24.7727 28.7051L24.7747 30.3385L26.5456 30.781C26.0867 31.2505 25.8065 31.8858 25.8065 32.5796V32.9619L24.1966 33.3198L24.2384 33.1736L24.2581 32.2198L21.536 30.6318L22.7097 30.3385ZM17.0323 29.4194H17.4085L21.1205 31.5844L19.2475 39.0761L17.0323 38.3374V29.4194ZM21.245 39.7419L20.2291 39.4035L22.0486 32.126L23.2258 32.8125V32.9599L21.2883 39.7419H21.245ZM24.7742 41.2278C24.7742 41.0756 24.8357 40.9264 24.9435 40.8185L25.8508 39.9113C25.9587 39.8034 26.1079 39.7419 26.2601 39.7419C26.5791 39.7419 26.8387 40.0015 26.8387 40.3206C26.8387 40.4728 26.7772 40.622 26.6694 40.7298L25.7621 41.6371C25.6542 41.745 25.505 41.8064 25.3528 41.8064C25.0338 41.8064 24.7742 41.5469 24.7742 41.2278ZM26.3226 42.7762C26.3226 42.624 26.3841 42.4748 26.4919 42.3669L27.3992 41.4597C27.5071 41.3518 27.6562 41.2903 27.8085 41.2903C28.1275 41.2903 28.3871 41.5499 28.3871 41.8689C28.3871 42.0212 28.3256 42.1704 28.2177 42.2782L27.3105 43.1855C27.2026 43.2933 27.0534 43.3548 26.9012 43.3548C26.5822 43.3548 26.3226 43.0953 26.3226 42.7762ZM27.871 44.3246C27.871 44.1724 27.9325 44.0232 28.0403 43.9153L28.9476 43.0081C29.0554 42.9002 29.2046 42.8387 29.3569 42.8387C29.6759 42.8387 29.9355 43.0983 29.9355 43.4173C29.9355 43.5696 29.874 43.7188 29.7661 43.8266L28.8589 44.7339C28.751 44.8417 28.6018 44.9032 28.4496 44.9032C28.1305 44.9032 27.871 44.6436 27.871 44.3246ZM29.998 46.4516C29.6789 46.4516 29.4194 46.192 29.4194 45.873C29.4194 45.7208 29.4808 45.5716 29.5887 45.4637L30.496 44.5564C30.6038 44.4486 30.753 44.3871 30.9052 44.3871C31.2243 44.3871 31.4839 44.6467 31.4839 44.9657C31.4839 45.1179 31.4224 45.2671 31.3145 45.375L30.4073 46.2823C30.2994 46.3901 30.1502 46.4516 29.998 46.4516ZM32.494 46.9677H32.3984C32.2669 46.9677 32.1409 46.9199 32.0428 46.8329L31.6568 46.4924L32.0444 46.1048C32.1827 45.9665 32.2901 45.8019 32.3695 45.6253L32.8387 46.0159C32.9614 46.1182 33.0323 46.2689 33.0323 46.4294C33.0323 46.7263 32.7908 46.9677 32.494 46.9677ZM37.1225 42.3226H37.0333C36.9037 42.3226 36.7772 42.2767 36.6782 42.1935L33.8793 39.8611L33.218 40.6545L35.936 42.9191C36.0582 43.0214 36.129 43.1721 36.129 43.3327C36.129 43.6295 35.8876 43.871 35.5907 43.871H35.4781C35.3528 43.871 35.2303 43.8266 35.1338 43.746L32.3304 41.41L31.6691 42.2034L34.3871 44.4682C34.5098 44.5698 34.5806 44.7205 34.5806 44.881C34.5806 45.1779 34.3392 45.4194 34.0423 45.4194C33.8443 45.4194 33.6512 45.349 33.4992 45.2228L32.3473 44.2626C32.0935 43.744 31.5721 43.3823 30.9614 43.3606C30.9317 42.5186 30.255 41.842 29.4131 41.8122C29.3833 40.9703 28.7067 40.2936 27.8647 40.2639C27.8344 39.4022 27.1288 38.7097 26.2601 38.7097C25.8359 38.7097 25.4209 38.8816 25.121 39.1815L24.2137 40.0887C24.1595 40.1429 24.1147 40.2044 24.0691 40.2654L22.4836 39.314L23.8735 34.4496L27.3579 33.6749C28.2719 33.4705 29.2356 33.5149 30.127 33.8001L30.8873 34.0433L28.3097 35.3322C27.7208 35.6273 27.3548 36.2198 27.3548 36.8785V36.9806C27.3548 37.934 28.1305 38.7097 29.0839 38.7097C29.3972 38.7097 29.7054 38.6245 29.9733 38.463L31.8952 37.3105C32.2812 37.0791 32.7994 37.1298 33.1328 37.4297L37.4937 41.3543C37.6104 41.4602 37.6774 41.6104 37.6774 41.7676C37.6774 42.0738 37.4287 42.3226 37.1225 42.3226ZM46.9677 36.3261L38.2724 40.6741C38.2442 40.6442 38.2147 40.6157 38.1837 40.588L33.8236 36.6633C33.4415 36.3185 32.9476 36.129 32.433 36.129C32.0567 36.129 31.6872 36.2313 31.3637 36.4254L29.441 37.5784C29.3332 37.6434 29.2099 37.6774 29.0839 37.6774C28.6993 37.6774 28.3871 37.3652 28.3871 36.9806V36.8785C28.3871 36.6126 28.5348 36.3742 28.7722 36.2555L31.6512 34.816C32.1439 34.5693 32.7288 34.5141 33.2598 34.6668L36.5033 35.5932L37.2888 35.6129L46.9677 30.5186V36.3261Z" fill="#12355B"/>
<defs>
<linearGradient id="paint0_linear_464_661" x1="5.86666" y1="3.38462" x2="55.9995" y2="66.4953" gradientUnits="userSpaceOnUse">
<stop stop-color="#FAF8D4"/>
<stop offset="1" stop-color="#D49FBF"/>
</linearGradient>
</defs>
</svg>
