<svg width="160" height="64" viewBox="0 0 160 64" fill="none" xmlns="http://www.w3.org/2000/svg">
<circle cx="128" cy="32" r="32" fill="white"/>
<mask id="mask0_440_1455" style="mask-type:alpha" maskUnits="userSpaceOnUse" x="96" y="0" width="64" height="64">
<circle cx="128" cy="32" r="32" fill="white"/>
</mask>
<g mask="url(#mask0_440_1455)">
<path d="M151.301 35.8399C151.301 35.1082 151.906 34.5146 152.65 34.5146C153.396 34.5146 154 35.1082 154 35.8399C154 36.5715 153.396 37.1648 152.65 37.1648C151.906 37.1648 151.301 36.5715 151.301 35.8399Z" fill="#86BC24"/>
<path d="M108.105 32.3302C108.105 31.4908 107.94 30.8681 107.61 30.4623C107.279 30.0571 106.778 29.8546 106.104 29.8546H105.387V34.9876H105.936C106.684 34.9876 107.233 34.7697 107.582 34.3326C107.93 33.8963 108.106 33.2287 108.106 32.3302H108.105ZM110.662 32.2427C110.662 33.772 110.243 34.9504 109.405 35.7775C108.568 36.605 107.391 37.0187 105.873 37.0187H102.925V27.8552H106.079C107.542 27.8552 108.672 28.2314 109.468 28.9834C110.264 29.7358 110.662 30.8217 110.662 32.2429V32.2427ZM118.829 37.0187H121.175V27.8167H118.829V37.0187ZM124.471 33.5863C124.471 34.173 124.55 34.6205 124.705 34.928C124.862 35.236 125.123 35.3897 125.491 35.3897C125.855 35.3897 126.113 35.236 126.263 34.928C126.413 34.6205 126.487 34.173 126.487 33.5863C126.487 33.0027 126.412 32.5624 126.26 32.2653C126.107 31.9673 125.848 31.8182 125.479 31.8182C125.119 31.8182 124.862 31.9666 124.705 32.2618C124.55 32.5575 124.471 32.9988 124.471 33.5863H124.471ZM128.875 33.5863C128.875 34.7041 128.577 35.5761 127.979 36.2011C127.381 36.8266 126.544 37.1395 125.467 37.1395C124.436 37.1395 123.614 36.8197 123.004 36.18C122.394 35.5404 122.089 34.6761 122.089 33.5864C122.089 32.472 122.388 31.6061 122.986 30.9887C123.584 30.3713 124.423 30.0627 125.504 30.0627C126.171 30.0627 126.762 30.2057 127.274 30.4914C127.786 30.777 128.181 31.1863 128.459 31.7193C128.737 32.2515 128.875 32.8742 128.875 33.5863ZM129.807 37.0187H132.154V30.1835H129.807V37.0187ZM129.807 29.3567H132.154V27.8164H129.807V29.3567ZM136.908 35.2753C137.225 35.2753 137.602 35.1963 138.042 35.0395V36.7593C137.726 36.8958 137.425 36.9936 137.139 37.0515C136.853 37.1102 136.518 37.1393 136.134 37.1393C135.346 37.1393 134.778 36.9449 134.429 36.5568C134.082 36.1688 133.908 35.5729 133.908 34.7688V31.951H133.086V30.1841H133.908V28.4385L136.273 28.0348V30.1841H137.77V31.9511H136.273V34.6115C136.273 35.0541 136.485 35.2753 136.908 35.2753ZM142.339 35.2753C142.656 35.2753 143.033 35.1963 143.473 35.0395V36.7593C143.157 36.8958 142.856 36.9936 142.57 37.0515C142.284 37.1102 141.95 37.1393 141.565 37.1393C140.777 37.1393 140.209 36.9449 139.861 36.5568C139.513 36.1688 139.339 35.5729 139.339 34.7688V31.951H138.517V30.1841H139.339V28.4121L141.703 28.0348V30.1841H143.201V31.9511H141.703V34.6115C141.703 35.0541 141.915 35.2753 142.339 35.2753H142.339ZM146.434 32.7536C146.466 32.3794 146.575 32.1052 146.761 31.93C146.948 31.7551 147.178 31.6677 147.454 31.6677C147.755 31.6677 147.994 31.7658 148.171 31.9637C148.35 32.1604 148.443 32.4239 148.45 32.7536H146.434ZM149.743 30.8685C149.186 30.3317 148.394 30.0629 147.371 30.0629C146.295 30.0629 145.466 30.3716 144.886 30.9889C144.306 31.6063 144.016 32.4921 144.016 33.6464C144.016 34.7641 144.329 35.6261 144.955 36.2312C145.581 36.8363 146.46 37.1393 147.593 37.1393C148.137 37.1393 148.604 37.1029 148.997 37.0304C149.386 36.9587 149.764 36.829 150.13 36.6419L149.769 35.1015C149.503 35.2082 149.25 35.2902 149.011 35.3442C148.666 35.4229 148.287 35.4624 147.874 35.4624C147.422 35.4624 147.065 35.3539 146.803 35.1369C146.542 34.9194 146.402 34.6195 146.386 34.2376H150.58V33.1881C150.58 32.1784 150.302 31.405 149.743 30.8685ZM113.776 32.7536C113.808 32.3794 113.917 32.1052 114.103 31.93C114.289 31.7551 114.52 31.6677 114.796 31.6677C115.096 31.6677 115.335 31.7658 115.513 31.9637C115.691 32.1604 115.784 32.4239 115.792 32.7536H113.776ZM117.085 30.8685C116.527 30.3317 115.736 30.0629 114.712 30.0629C113.635 30.0629 112.808 30.3716 112.228 30.9889C111.648 31.6063 111.357 32.4921 111.357 33.6464C111.357 34.7641 111.67 35.6261 112.297 36.2312C112.923 36.8363 113.802 37.1393 114.934 37.1393C115.478 37.1393 115.946 37.1029 116.338 37.0304C116.728 36.9587 117.105 36.829 117.471 36.6419L117.111 35.1015C116.844 35.2082 116.591 35.2902 116.353 35.3442C116.007 35.4229 115.628 35.4624 115.216 35.4624C114.764 35.4624 114.406 35.3539 114.145 35.1369C113.883 34.9194 113.744 34.6195 113.728 34.2376H117.922V33.1881C117.922 32.1784 117.643 31.405 117.085 30.8685Z" fill="#0F0B0B"/>
</g>
<mask id="mask1_440_1455" style="mask-type:alpha" maskUnits="userSpaceOnUse" x="48" y="0" width="64" height="64">
<circle cx="80" cy="32" r="32" fill="#C4C4C4"/>
</mask>
<g mask="url(#mask1_440_1455)">
<path fill-rule="evenodd" clip-rule="evenodd" d="M48 0H112V64H48V0Z" fill="#005981"/>
<path fill-rule="evenodd" clip-rule="evenodd" d="M58.3476 34.7984C58.3476 35.6448 58.009 36.7654 56.9731 36.7866C56.4654 36.7654 56.1486 36.511 56.1486 35.9824C56.1486 34.989 57.6076 34.7984 58.3476 34.7984ZM59.8066 37.7166V33.0015C59.8275 31.4792 58.8128 30.9503 57.417 30.9503C56.0427 30.9503 54.9009 31.5423 54.9009 33.0437H56.4023C56.4023 32.3879 56.7619 32.0287 57.417 32.0287C58.1783 32.0287 58.3476 32.5785 58.3476 33.2343V33.8893C56.8466 33.9315 54.6685 34.143 54.6472 36.1312C54.6681 37.2518 55.5563 37.8647 56.5922 37.8647C57.3323 37.8647 57.9877 37.611 58.3051 36.9556H58.3473V37.7169H59.8066V37.7166ZM64.3739 33.3608C64.3739 32.6844 64.1833 32.0287 63.3798 32.0287C62.407 32.0287 62.1321 33.0437 62.1112 33.8472C62.1321 35.4964 63.0837 36.7654 64.8388 36.7869C65.2193 36.7657 65.5788 36.7229 65.9384 36.6169V37.5476C65.3252 37.7375 64.6694 37.8647 64.014 37.8647C61.6669 37.8647 60.4829 36.4054 60.4829 34.1224C60.4829 32.1983 61.5192 30.9506 63.5067 30.9506C65.114 30.9506 66.0228 31.7328 66.0228 33.3611H64.3739V33.3608ZM70.2943 33.3608C70.2943 32.6844 70.104 32.0287 69.3005 32.0287C68.328 32.0287 68.0318 33.0437 68.0318 33.8472C68.0318 35.4964 69.0047 36.7654 70.7385 36.7869C71.119 36.7657 71.4995 36.7229 71.8591 36.6169V37.5476C71.2462 37.7375 70.5904 37.8647 69.9354 37.8647C67.5879 37.8647 66.4039 36.4054 66.4039 34.1224C66.4039 32.1983 67.4398 30.9506 69.4277 30.9506C71.0347 30.9506 71.9229 31.7328 71.9229 33.3611H70.2943V33.3608ZM76.3209 33.0855H73.91C73.9947 32.4092 74.502 31.9437 75.1575 31.9437C75.8763 31.9437 76.3209 32.367 76.3209 33.0855ZM77.7798 34.0162V33.6357C77.7798 32.0074 76.9554 30.9503 75.2637 30.9503C73.2971 30.9503 72.4511 32.1764 72.4302 34.0583C72.4511 36.2368 73.424 37.8644 75.771 37.8644C76.4052 37.8644 77.0185 37.78 77.6108 37.5901V36.5323C77.2303 36.6594 76.7648 36.765 76.3421 36.7866C74.862 36.7654 73.8679 35.4117 73.8679 34.0162H77.7798ZM82.3472 37.7166V33.9315C82.3472 33.6144 82.3684 32.7688 82.1144 32.5151C82.0088 32.4095 81.8186 32.3879 81.6708 32.3879C80.5496 32.3879 80.106 33.9528 80.106 34.8619V37.7166H78.5624V31.098H80.106V32.3458H80.1269C80.4861 31.5001 81.1631 30.9503 82.0932 30.9503C83.3622 30.9503 83.8907 31.9865 83.8907 33.128V37.7166H82.3472ZM87.0838 32.1764V35.3061C87.0838 36.0668 87.1682 36.7654 88.1194 36.7866C88.3626 36.7665 88.6033 36.7239 88.8386 36.6594V37.7588C88.4159 37.8222 87.9929 37.8644 87.5703 37.8644C86.2375 37.8644 85.5612 37.4201 85.5399 36.0459V32.1764H84.2507V31.0977H85.5399V29.5335L87.0838 28.9202V31.098H89.0501V32.1768H87.0838V32.1764ZM93.4903 37.7166V36.4695H93.4697C93.131 37.2936 92.4547 37.8644 91.5034 37.8644C90.2557 37.8644 89.7271 36.8072 89.7271 35.6866V31.098H91.2704V34.8834C91.2704 35.2005 91.2491 36.0462 91.5031 36.2999C91.6087 36.4054 91.7989 36.4054 91.9473 36.427C93.0467 36.4058 93.4899 34.8416 93.4899 33.9743V31.098H95.0339V37.7166H93.4903ZM97.5503 34.8197V37.7166H96.007V31.098H97.5503V32.3245H97.5715C98.1001 31.4154 98.6078 30.9503 99.7071 30.9503V32.5573C98.1426 32.5573 97.5503 33.2548 97.5503 34.8197ZM103.894 33.0855H101.483C101.568 32.4092 102.075 31.9437 102.731 31.9437C103.45 31.9437 103.915 32.367 103.894 33.0855ZM105.353 34.0162V33.6357C105.353 32.0074 104.529 30.9503 102.858 30.9503C100.891 30.9503 100.024 32.1764 100.024 34.0583C100.024 36.2368 101.018 37.8644 103.344 37.8644C103.979 37.8644 104.592 37.78 105.184 37.5901V36.5323C104.803 36.6594 104.359 36.765 103.936 36.7866C102.435 36.7654 101.462 35.4117 101.441 34.0162H105.353ZM84.2507 23.3591V24.4376C84.2507 24.4376 87.3375 25.6219 87.7817 25.8121C87.3375 25.9815 84.2507 27.1655 84.2507 27.1655V28.2439L89.0501 26.2986V25.3045L84.2507 23.3591Z" fill="white"/>
</g>
<mask id="mask2_440_1455" style="mask-type:alpha" maskUnits="userSpaceOnUse" x="0" y="0" width="64" height="64">
<circle cx="32" cy="32" r="32" fill="#C4C4C4"/>
</mask>
<g mask="url(#mask2_440_1455)">
<path fill-rule="evenodd" clip-rule="evenodd" d="M0 0H64V64H0V0Z" fill="white"/>
<path fill-rule="evenodd" clip-rule="evenodd" d="M6.66467 32.5457C6.62797 33.594 7.30228 33.2385 7.30228 33.4901C7.30228 33.5142 7.32665 33.5881 7.15576 33.5881C6.93473 33.5881 6.80642 33.5635 6.52431 33.5635C6.22344 33.5635 6.00884 33.5881 5.91723 33.5881C5.82563 33.5881 5.80041 33.5388 5.80041 33.5027C5.80041 33.2817 6.30328 33.4343 6.32765 32.7908L6.41394 30.3264C6.45063 29.3151 5.79425 29.6033 5.79425 29.3338C5.79425 29.2971 5.82535 29.2478 5.86793 29.2478C5.94805 29.2478 6.03966 29.2719 6.23604 29.2719C6.37696 29.2719 6.60359 29.2478 6.80642 29.2478C6.87366 29.2478 6.93473 29.2417 7.02045 29.426L8.36936 32.3681C8.39373 32.4233 8.4125 32.4661 8.44864 32.4661C8.48618 32.4661 8.54081 32.356 8.54725 32.3376L9.96928 29.3708C9.98721 29.3279 10.0063 29.2481 10.1228 29.2481C10.2693 29.2481 10.3861 29.2722 10.478 29.2722C10.5884 29.2722 10.7052 29.2481 10.8767 29.2481C11.0422 29.2481 11.0546 29.2722 11.0546 29.3218C11.0546 29.5425 10.4537 29.3039 10.478 30.0081L10.5828 32.7242C10.6133 33.5273 11.1767 33.257 11.1767 33.4842C11.1767 33.5887 11.0974 33.5887 10.8828 33.5887C10.7049 33.5887 10.5335 33.564 10.3556 33.564C9.95695 33.564 9.81044 33.5887 9.66924 33.5887C9.5401 33.5887 9.38713 33.6066 9.38713 33.4968C9.38713 33.2884 9.86507 33.4909 9.82837 32.8107L9.73648 30.9522C9.73031 30.7687 9.72415 30.6766 9.68717 30.6766C9.6628 30.6766 9.58912 30.7996 9.49695 31.0018L8.33882 33.4237C8.30185 33.5035 8.27691 33.5949 8.17914 33.5949C8.08753 33.5949 8.05672 33.4909 8.02646 33.4237L6.8364 30.7813C6.81847 30.7444 6.79409 30.6766 6.76916 30.6766C6.72686 30.6766 6.72686 30.787 6.72686 30.8301L6.66467 32.5457Z" fill="black"/>
<path fill-rule="evenodd" clip-rule="evenodd" d="M12.5831 30.9333C12.7915 30.9333 13.3554 31.0376 13.3554 31.3934C13.3554 31.5037 13.0061 31.7671 12.9019 31.7671C12.847 31.7671 12.8346 31.7183 12.8226 31.6755C12.7489 31.381 12.6441 31.1726 12.3136 31.1726C11.8418 31.1726 11.737 31.6144 11.737 31.9937C11.737 32.5831 12.0623 33.2451 12.6385 33.2451C12.9999 33.2451 13.3005 32.9196 13.3986 32.9196C13.4229 32.9196 13.4599 32.926 13.4599 32.9936C13.4599 33.1468 12.945 33.6309 12.3136 33.6309C11.6146 33.6309 11.1243 33.1039 11.1243 32.4052C11.1243 31.583 11.7558 30.9333 12.5831 30.9333Z" fill="black"/>
<path fill-rule="evenodd" clip-rule="evenodd" d="M15.759 30.8723C15.7223 30.9028 15.6243 30.9947 15.6243 31.0502C15.6243 31.1051 15.6792 31.1788 15.7716 31.3012L16.9421 32.8773C17.4206 33.5267 17.6901 33.355 17.6901 33.5088C17.6901 33.5513 17.6839 33.588 17.6111 33.588C17.4755 33.588 17.3164 33.5634 17.1511 33.5634C17.0342 33.5634 16.9118 33.588 16.7398 33.588C16.6238 33.588 16.5625 33.576 16.4395 33.4102L15.2197 31.7366C15.1399 31.6323 15.1029 31.5648 15.0665 31.5648C15.0175 31.5648 14.9127 31.6693 14.7779 31.8226C14.6863 31.9262 14.6981 31.9814 14.6981 32.1226V32.9258C14.6981 33.49 15.2996 33.2939 15.2996 33.5141C15.2996 33.5698 15.2746 33.588 15.1273 33.588C14.962 33.588 14.7964 33.5634 14.4471 33.5634C14.1527 33.5634 13.8339 33.588 13.6442 33.588C13.5274 33.588 13.4537 33.5816 13.4537 33.5387C13.4537 33.2323 13.9442 33.6306 13.9442 32.7047V30.0377C13.9442 29.2965 13.3002 29.6091 13.3002 29.3388C13.3002 29.2713 13.3495 29.2472 13.4232 29.2472C13.54 29.2472 13.742 29.2713 14.1588 29.2713C14.502 29.2713 14.8883 29.2472 15.011 29.2472C15.0662 29.2472 15.1396 29.2472 15.1396 29.3208C15.1396 29.566 14.6978 29.2346 14.6978 29.9092V31.3133C14.6978 31.3743 14.6919 31.4606 14.7289 31.4542C14.7659 31.4603 14.8026 31.4298 14.8819 31.35L15.6912 30.5594C15.8627 30.3871 16.4574 29.8912 16.4574 29.6147C16.4574 29.4253 16.0837 29.5052 16.0837 29.3637C16.0837 29.2531 16.1448 29.2469 16.2246 29.2469C16.2857 29.2469 16.7087 29.271 16.8928 29.271C17.0463 29.271 17.2054 29.2469 17.4693 29.2469C17.5181 29.2469 17.6284 29.2407 17.6284 29.3511C17.6284 29.5164 17.4318 29.3332 16.8379 29.8722L15.759 30.8723Z" fill="black"/>
<path fill-rule="evenodd" clip-rule="evenodd" d="M17.8518 31.6018C17.8518 31.3074 17.4593 31.4794 17.4593 31.3074C17.4593 31.2096 17.5512 31.2031 17.7658 31.1482C18.2804 31.0314 18.3541 30.8843 18.4278 30.8843C18.5014 30.8843 18.5014 30.9275 18.5014 31.0073V33.0734C18.5014 33.4656 18.9488 33.3 18.9488 33.509C18.9488 33.6065 18.7715 33.5883 18.6978 33.5883C18.5012 33.5883 18.3109 33.5637 18.1148 33.5637C17.9678 33.5637 17.8148 33.5883 17.661 33.5883C17.5571 33.5883 17.4898 33.6062 17.4898 33.5029C17.4898 33.3491 17.8518 33.453 17.8518 33.1712V31.6018ZM18.1826 30.4187C18.0846 30.4187 17.7784 30.0262 17.7784 29.9344C17.7784 29.8419 18.0849 29.4441 18.1826 29.4441C18.2866 29.4441 18.5869 29.8419 18.5869 29.9344C18.5872 30.0262 18.2866 30.4187 18.1826 30.4187Z" fill="black"/>
<path fill-rule="evenodd" clip-rule="evenodd" d="M19.2679 31.6018C19.2679 31.3073 18.8754 31.4793 18.8754 31.3073C18.8754 31.2095 18.9679 31.2031 19.1819 31.1482C19.6974 31.0314 19.7705 30.8843 19.8439 30.8843C19.9173 30.8843 19.9176 30.9274 19.9176 31.0073V31.3569H19.9299C20.0955 31.0874 20.4017 30.9339 20.7636 30.9339C21.4256 30.9339 21.6959 31.4799 21.6959 32.0738V33.0669C21.6959 33.4532 22.0758 33.3619 22.0758 33.4964C22.0758 33.5703 22.0388 33.5883 21.9344 33.5883C21.7382 33.5883 21.5421 33.5636 21.4138 33.5636C21.2603 33.5636 21.0396 33.5883 20.9656 33.5883C20.8496 33.5883 20.7633 33.6188 20.7633 33.509C20.7633 33.4039 21.0454 33.3493 21.0454 33.1221V32.0797C21.0454 31.6819 20.9045 31.3325 20.4445 31.3325C20.0403 31.3325 19.9173 31.5653 19.9173 31.9211V33.0549C19.9173 33.4039 20.414 33.3493 20.414 33.4964C20.414 33.5516 20.3717 33.5883 20.2243 33.5883C20.1571 33.5883 19.9361 33.5636 19.6234 33.5636C19.4088 33.5636 19.1942 33.5883 19.0102 33.5883C18.9491 33.5883 18.9429 33.5516 18.9429 33.521C18.9429 33.3431 19.2682 33.509 19.2682 32.9997V31.6018H19.2679ZM23.9097 31.5953C23.9097 31.6441 23.8915 31.6567 23.8304 31.6567C23.7074 31.6567 23.6463 31.1233 23.0698 31.1233C22.8675 31.1233 22.6837 31.2157 22.6837 31.4365C22.6837 31.7239 22.9289 31.755 23.4256 31.9511C23.8242 32.1105 24.0758 32.301 24.0758 32.7672C24.0758 33.4227 23.499 33.6306 23.0275 33.6306C22.8191 33.6306 22.4204 33.588 22.2613 33.4961C22.2184 33.4715 22.1997 33.4594 22.1997 33.374L22.2184 32.742C22.224 32.6559 22.2672 32.6375 22.3288 32.6375C22.4325 32.6375 22.5002 33.4653 23.1625 33.4653C23.4194 33.4653 23.6037 33.2941 23.6037 33.0364C23.6037 32.7907 23.2606 32.6501 22.7146 32.4111C22.3775 32.264 22.2366 32.1041 22.2366 31.7303C22.2366 31.1482 22.721 30.9336 23.2362 30.9336C23.2847 30.9336 23.8612 30.9832 23.8676 31.0871L23.9097 31.5953ZM25.0328 32.0861C24.9216 32.0861 24.8975 32.0435 24.8975 32.2394C24.8975 32.7674 25.2712 33.2451 25.8054 33.2451C26.1668 33.2451 26.4668 32.9196 26.5655 32.9196C26.5898 32.9196 26.6265 32.926 26.6265 32.9935C26.6265 33.1468 26.1119 33.6309 25.4805 33.6309C24.8734 33.6309 24.2725 33.2451 24.2725 32.4052C24.2725 31.6998 24.6711 30.9336 25.4617 30.9336C26.2836 30.9336 26.6142 31.6326 26.6142 31.9514C26.6142 32.0861 26.5772 32.0861 26.5405 32.0861H25.0328ZM25.8107 31.8713C25.915 31.8713 25.9517 31.8774 25.9517 31.706C25.9517 31.4726 25.7802 31.1112 25.3939 31.1112C25.0263 31.1112 24.8916 31.4726 24.8916 31.7547C24.8916 31.853 24.9033 31.8713 24.9213 31.8713H25.8107ZM26.9826 31.4485C26.8593 31.1975 26.6576 31.2154 26.6576 31.0924C26.6576 31.007 26.7557 31.0008 26.8722 31.0008C26.9703 31.0008 27.068 31.0249 27.3502 31.0249C27.6566 31.0249 27.767 31.0008 27.8836 31.0008C27.988 31.0008 28.0553 30.9947 28.0553 31.0798C28.0553 31.246 27.7183 31.2028 27.7183 31.3872C27.7183 31.4485 27.7732 31.5712 27.8281 31.6872L28.3309 32.6994C28.3741 32.7848 28.392 32.8521 28.4416 32.8521C28.4721 32.8521 28.5027 32.7672 28.5271 32.6994L28.8276 31.9262C28.9013 31.7365 28.9257 31.5953 28.9257 31.5342C28.9257 31.16 28.5153 31.2586 28.5153 31.0986C28.5153 30.9944 28.6007 31.0006 28.7358 31.0006C28.803 31.0006 28.9016 31.0247 29.0795 31.0247C29.2512 31.0247 29.3428 31.0006 29.4165 31.0006C29.4964 31.0006 29.57 31.0006 29.57 31.0678C29.57 31.1846 29.3372 31.209 29.2574 31.4048L27.9511 34.6912C27.927 34.7585 27.9146 34.8072 27.8533 34.8072H27.565C27.5219 34.8072 27.5101 34.7898 27.5101 34.7585C27.5101 34.7153 27.5345 34.6666 27.565 34.6178L27.9449 34.0105C28.0491 33.8452 28.0858 33.7407 28.0858 33.6914C28.0858 33.6241 28.043 33.5381 27.9323 33.3233L26.9826 31.4485ZM30.9999 30.7434C30.9999 30.6271 30.8708 30.5167 30.8708 30.1484C30.8708 29.5659 31.3431 29.1917 31.9009 29.1917C32.3051 29.1917 32.6858 29.4189 32.7777 29.4189C32.8637 29.4189 32.8878 29.3272 32.9797 29.3272C33.0411 29.3272 33.0469 29.3578 33.0469 29.4497C33.0469 29.7623 33.0962 30.0811 33.1335 30.3938C33.1394 30.4554 33.1145 30.5041 33.0411 30.5041C32.9859 30.5041 32.9551 30.4554 32.9251 30.3573C32.778 29.873 32.4469 29.4259 31.9009 29.4259C31.6126 29.4259 31.4717 29.6035 31.4717 29.8791C31.4717 30.7557 33.5072 32.4786 33.6605 32.4786C33.6851 32.4786 33.8997 32.2209 33.8997 31.8533C33.8997 31.0871 33.201 31.4054 33.201 31.1602C33.201 31.1115 33.2316 31.0748 33.3176 31.0748C33.4215 31.0748 33.5627 31.0992 33.949 31.0992C34.2488 31.0992 34.3594 31.0748 34.4572 31.0748C34.5186 31.0748 34.5564 31.0927 34.5564 31.1546C34.5564 31.295 34.3474 31.2034 34.3168 31.4177C34.1997 32.3072 33.9367 32.5764 33.9367 32.6198C33.9367 32.8649 34.5987 33.1893 34.7586 33.1893C34.9917 33.1893 34.9853 33.1468 35.0704 33.1468C35.1197 33.1468 35.157 33.1594 35.157 33.2207C35.157 33.3188 34.8441 33.6311 34.397 33.6311C34.0221 33.6311 33.5997 33.3241 33.3974 33.1535C33.0237 33.4905 32.3802 33.6311 31.8891 33.6311C30.504 33.6311 30.0567 32.6812 30.0567 32.1419C30.0558 31.063 30.9999 30.8103 30.9999 30.7434ZM33.1635 33.042C33.1635 32.9014 31.7415 32.0556 31.2386 31.1356C31.1837 31.0375 31.1218 30.9515 31.0733 30.9515C30.9565 30.9515 30.6136 31.1356 30.6136 31.5894C30.6136 32.264 31.4714 33.2692 32.4155 33.2692C32.6612 33.2689 33.1635 33.1529 33.1635 33.042ZM39.3273 30.5658C39.3337 30.6271 39.3578 30.768 39.2539 30.768C39.1558 30.768 39.1132 30.6389 39.0701 30.5596C38.7631 29.9707 38.2241 29.4376 37.5128 29.4376C36.6115 29.4376 36.1148 30.2954 36.1148 31.1174C36.1148 31.9814 36.6056 33.1952 37.7761 33.1952C38.7266 33.1952 39.1435 32.3932 39.3032 32.3932C39.3337 32.3932 39.3886 32.4231 39.3886 32.4604C39.3886 32.705 38.7392 33.6309 37.4332 33.6309C35.6369 33.6309 35.3612 32.0615 35.3612 31.5768C35.3612 30.5473 35.9927 29.1919 37.5374 29.1919C38.2792 29.1919 38.7521 29.5662 38.9354 29.5662C39.0519 29.5662 39.0581 29.3642 39.1438 29.3642C39.1743 29.3642 39.2172 29.3704 39.2172 29.4009L39.3273 30.5658ZM40.8681 33.6306C40.1268 33.6306 39.55 33.1162 39.55 32.3618C39.55 31.5586 40.1201 30.9333 40.9415 30.9333C41.708 30.9333 42.2963 31.4418 42.2963 32.2144C42.2963 33.049 41.7141 33.6306 40.8681 33.6306ZM40.1994 32.0122C40.1814 32.417 40.3773 33.4163 41.0583 33.4163C41.536 33.4163 41.6772 33.0605 41.6772 32.6436C41.6772 32.1534 41.4993 31.13 40.8373 31.13C40.3041 31.13 40.2187 31.5712 40.1994 32.0122ZM44.984 33.0605C44.984 33.4653 45.3818 33.3182 45.3818 33.4899C45.3818 33.5325 45.3692 33.588 45.2905 33.588C45.1734 33.588 45.0389 33.5633 44.763 33.5633C44.4198 33.5633 44.2906 33.588 44.2055 33.588C44.1256 33.588 44.0948 33.5633 44.0948 33.5087C44.0948 33.367 44.3335 33.4342 44.3335 33.1098V32.0248C44.3335 31.4365 44.1256 31.3196 43.8497 31.3196C43.4816 31.3196 43.3961 31.6018 43.3961 31.6816V33.0731C43.3961 33.4653 43.8065 33.2997 43.8065 33.5087C43.8065 33.6062 43.6653 33.588 43.592 33.588C43.3961 33.588 43.2056 33.5633 43.0098 33.5633C42.8627 33.5633 42.7089 33.588 42.5868 33.588C42.4823 33.588 42.4456 33.6059 42.4456 33.5026C42.4456 33.3488 42.7453 33.4527 42.7453 33.1709V31.6015C42.7453 31.307 42.3531 31.4791 42.3531 31.307C42.3531 31.2093 42.4456 31.2028 42.6602 31.1479C43.1751 31.0311 43.2485 30.884 43.3216 30.884C43.3961 30.884 43.3961 30.9272 43.3961 31.007V31.3135C43.5981 31.1051 43.8432 30.9336 44.1803 30.9336C44.4926 30.9336 44.7263 31.1115 44.898 31.3566C45.0451 31.16 45.3331 30.9336 45.7253 30.9336C46.4301 30.9336 46.5713 31.381 46.5713 32.0368V33.0731C46.5713 33.4289 46.9576 33.3123 46.9576 33.4835C46.9576 33.6006 46.8596 33.588 46.7733 33.588C46.6512 33.588 46.5282 33.5633 46.406 33.5633C46.185 33.5633 45.9147 33.588 45.8172 33.588C45.7185 33.588 45.676 33.576 45.676 33.4961C45.676 33.3922 45.9211 33.374 45.9211 33.2017V32.0985C45.9211 31.7365 45.9146 31.2944 45.4303 31.2944C44.928 31.2944 44.9837 31.8528 44.9837 31.9259V33.0605H44.984ZM47.9396 34.2688C47.9396 34.7103 48.4424 34.5385 48.4424 34.7285C48.4424 34.7657 48.4239 34.8078 48.3133 34.8078C48.0866 34.8078 48.0015 34.7837 47.7617 34.7837C47.3753 34.7837 47.2773 34.8078 47.1728 34.8078C47.0935 34.8078 47.0327 34.8142 47.0327 34.7159C47.0327 34.5814 47.2899 34.6612 47.2899 34.4282V31.7427C47.2899 31.2891 46.9097 31.5586 46.9097 31.3437C46.9097 31.1785 47.2036 31.2765 47.7801 30.9272C47.8107 30.909 47.8415 30.884 47.8846 30.884C47.9519 30.884 47.9393 31.0126 47.9393 31.0501V31.3566C48.1483 31.1174 48.436 30.9336 48.7612 30.9336C49.4358 30.9336 49.7417 31.4914 49.7417 32.0615C49.7417 32.8154 49.386 33.6309 48.4054 33.6309C48.2642 33.6309 48.0737 33.5816 47.9393 33.5143V34.2688H47.9396ZM47.9396 33.0364C47.9396 33.0543 48.1606 33.4101 48.571 33.4101C49.0677 33.4101 49.2025 32.9383 49.2025 32.5276C49.2025 32.1041 48.9699 31.3619 48.3931 31.3619C48.2278 31.3619 48.0499 31.4608 47.9396 31.583V33.0364ZM52.0303 32.8893C52.0303 33.1952 52.0367 33.2689 52.1967 33.2689C52.2695 33.2689 52.3493 33.2384 52.3925 33.2384C52.4351 33.2384 52.4597 33.263 52.4597 33.2941C52.4597 33.4163 52.086 33.6306 51.865 33.6306C51.5767 33.6306 51.4907 33.3855 51.466 33.2563C51.2089 33.4653 50.8472 33.6306 50.5096 33.6306C50.1726 33.6306 49.9339 33.3919 49.9339 33.0543C49.9339 32.301 50.7491 32.1965 51.3806 32.0365C51.3806 31.5093 51.3375 31.1353 50.8531 31.1353C50.6206 31.1353 50.5713 31.1969 50.5713 31.4791C50.5713 31.7668 50.179 31.7668 50.1356 31.7668C50.0869 31.7668 49.9765 31.7547 49.9765 31.6382C49.9765 31.1048 50.6693 30.933 51.0988 30.933C51.7302 30.933 52.03 31.2152 52.03 31.8343V32.8893H52.0303ZM51.3809 32.4657C51.3809 32.301 51.3935 32.2458 51.3377 32.2458C51.0991 32.2458 50.615 32.4537 50.615 32.8647C50.615 32.9627 50.6208 33.2689 50.9394 33.2689C51.0738 33.2689 51.3809 33.2017 51.3809 33.0605V32.4657Z" fill="black"/>
<path fill-rule="evenodd" clip-rule="evenodd" d="M52.7667 31.6017C52.7667 31.3073 52.3745 31.4793 52.3745 31.3073C52.3745 31.2095 52.4664 31.2031 52.6816 31.1482C53.1965 31.0314 53.2699 30.8843 53.3435 30.8843C53.4169 30.8843 53.4169 30.9274 53.4169 31.0073V31.3569H53.429C53.5948 31.0874 53.9013 30.9339 54.2635 30.9339C54.9255 30.9339 55.1948 31.4799 55.1948 32.0738V33.0669C55.1948 33.4532 55.5749 33.3619 55.5749 33.4964C55.5749 33.5703 55.5377 33.5882 55.4337 33.5882C55.2373 33.5882 55.0415 33.5636 54.9129 33.5636C54.7591 33.5636 54.5386 33.5882 54.4652 33.5882C54.3487 33.5882 54.2633 33.6188 54.2633 33.509C54.2633 33.4039 54.5451 33.3493 54.5451 33.1221V32.0797C54.5451 31.6819 54.4033 31.3325 53.9442 31.3325C53.5394 31.3325 53.4167 31.5653 53.4167 31.9211V33.0548C53.4167 33.4039 53.9134 33.3493 53.9134 33.4964C53.9134 33.5515 53.8702 33.5882 53.7229 33.5882C53.6556 33.5882 53.4346 33.5636 53.1219 33.5636C52.9074 33.5636 52.693 33.5882 52.5087 33.5882C52.4474 33.5882 52.4415 33.5515 52.4415 33.521C52.4415 33.3431 52.7664 33.509 52.7664 32.9997V31.6017H52.7667ZM55.6192 31.4485C55.4962 31.1975 55.2942 31.2154 55.2942 31.0924C55.2942 31.007 55.3923 31.0008 55.5088 31.0008C55.6068 31.0008 55.7046 31.0249 55.9864 31.0249C56.2929 31.0249 56.4033 31.0008 56.5198 31.0008C56.6243 31.0008 56.6916 30.9947 56.6916 31.0798C56.6916 31.2459 56.3546 31.2028 56.3546 31.3871C56.3546 31.4485 56.4097 31.5712 56.4652 31.6872L56.9675 32.6993C57.0107 32.7848 57.0294 32.852 57.0782 32.852C57.1087 32.852 57.1395 32.7671 57.1642 32.6993L57.4645 31.9261C57.5379 31.7365 57.5626 31.5953 57.5626 31.5342C57.5626 31.1599 57.1521 31.2586 57.1521 31.0986C57.1521 30.9944 57.2376 31.0005 57.3726 31.0005C57.4399 31.0005 57.5379 31.0246 57.7164 31.0246C57.8875 31.0246 57.9794 31.0005 58.0528 31.0005C58.1327 31.0005 58.2066 31.0005 58.2066 31.0678C58.2066 31.1846 57.973 31.209 57.8931 31.4048L56.5882 34.6912C56.563 34.7584 56.5509 34.8072 56.4901 34.8072H56.2019C56.1587 34.8072 56.1461 34.7898 56.1461 34.7584C56.1461 34.7153 56.1713 34.6665 56.2019 34.6178L56.5815 34.0104C56.686 33.8451 56.7227 33.7406 56.7227 33.6913C56.7227 33.6241 56.6801 33.5381 56.57 33.3232L55.6192 31.4485Z" fill="black"/>
</g>
</svg>
