<svg width="48" height="48" viewBox="0 0 48 48" fill="none" xmlns="http://www.w3.org/2000/svg">
<circle opacity="0.1" cx="24" cy="24" r="24" fill="#5832DA"/>
<path d="M25 24C25 26.2091 23.2091 28 21 28C18.7909 28 17 26.2091 17 24C17 21.7909 18.7909 20 21 20C23.2091 20 25 21.7909 25 24ZM18.8 24C18.8 25.215 19.785 26.2 21 26.2C22.215 26.2 23.2 25.215 23.2 24C23.2 22.785 22.215 21.8 21 21.8C19.785 21.8 18.8 22.785 18.8 24Z" fill="#5832DA"/>
<path d="M32 24C32 26.2091 30.2091 28 28 28C25.7909 28 24 26.2091 24 24C24 21.7909 25.7909 20 28 20C30.2091 20 32 21.7909 32 24ZM25.8 24C25.8 25.215 26.785 26.2 28 26.2C29.215 26.2 30.2 25.215 30.2 24C30.2 22.785 29.215 21.8 28 21.8C26.785 21.8 25.8 22.785 25.8 24Z" fill="#5832DA"/>
</svg>
