<svg width="200" height="200" viewBox="0 0 200 200" fill="none" xmlns="http://www.w3.org/2000/svg">
<g opacity="0.6">
<ellipse cx="100" cy="100" rx="100" ry="100" fill="url(#paint0_linear_1570_317)"/>
<ellipse cx="100" cy="100" rx="100" ry="100" fill="white" fill-opacity="0.75"/>
</g>
<path d="M138.176 89.3818L138.16 89.3162C137.901 88.2691 136.842 87.6307 135.796 87.8896C134.749 88.1488 134.11 89.2074 134.369 90.2547L134.381 90.3022C134.597 91.1959 135.396 91.7953 136.277 91.7953C136.429 91.7953 136.584 91.7774 136.739 91.7399C137.787 91.4856 138.431 90.4299 138.176 89.3818Z" fill="#12355B"/>
<path d="M86.4625 113.721C81.607 110.792 78.7082 105.662 78.7082 99.9986C78.7082 98.2482 78.9885 96.5283 79.541 94.8869C79.8852 93.8648 79.3354 92.757 78.3133 92.4131C77.2912 92.0693 76.1836 92.619 75.8395 93.641C75.1516 95.6848 74.8027 97.8238 74.8027 99.9988C74.8027 107.042 78.4074 113.423 84.4449 117.066C84.7608 117.256 85.1084 117.347 85.452 117.347C86.1137 117.347 86.759 117.01 87.1258 116.402C87.683 115.479 87.3862 114.279 86.4625 113.721Z" fill="#12355B"/>
<path d="M108.376 85.4936C104.667 82.002 99.8183 80.0789 94.7224 80.0789C92.3359 80.0789 90.0007 80.4973 87.782 81.3219C86.7711 81.6979 86.2562 82.8219 86.632 83.833C87.0078 84.8442 88.1318 85.359 89.1431 84.983C90.9252 84.3205 92.8021 83.9846 94.7226 83.9846C98.8193 83.9846 102.717 85.5303 105.698 88.3371C106.075 88.6924 106.556 88.8684 107.036 88.8684C107.556 88.8684 108.074 88.6623 108.459 88.2541C109.198 87.469 109.161 86.2328 108.376 85.4936Z" fill="#12355B"/>
<path d="M148.047 100.587H133.354V96.5469C133.354 94.583 131.757 92.9852 129.793 92.9852H127.171C125.829 86.745 122.737 81.0614 118.198 76.5231C110.498 68.8225 99.4953 65.3883 88.7662 67.335C87.7051 67.5276 87.0008 68.544 87.1934 69.6053C87.3859 70.6666 88.4025 71.3701 89.4637 71.1782C98.9322 69.4598 108.642 72.4903 115.437 79.2852C119.241 83.0897 121.895 87.8049 123.166 92.9854H112.504C110.541 92.9854 108.943 94.5832 108.943 96.5471V100.587H94.2502C93.1717 100.587 92.2973 101.462 92.2973 102.54V114.521C92.2973 116.354 93.0111 118.022 94.1738 119.266V129.289C86.5551 129.159 79.44 126.145 74.0086 120.713C67.0369 113.741 64.0502 103.803 66.0191 94.1284C66.2342 93.0715 65.5518 92.0403 64.4949 91.8252C63.4377 91.61 62.4068 92.2926 62.1918 93.3495C59.9609 104.312 63.3457 115.574 71.2465 123.475C77.3258 129.554 85.6057 133.044 94.1736 133.191V140.268C94.1736 140.451 94.1859 140.632 94.2076 140.809C71.9379 140.532 53.9057 122.333 53.9057 99.9991C53.9057 93.0153 55.682 86.1887 59.0561 80.1391L65.6453 86.7596C66.0119 87.128 66.5102 87.335 67.0295 87.335H79.3127L91.3543 99.3766C91.7357 99.758 92.2355 99.9487 92.7352 99.9487C93.235 99.9487 93.735 99.758 94.116 99.3766C94.8787 98.6139 94.8787 97.3774 94.116 96.6145L82.0742 84.5729V72.2897C82.0742 71.7709 81.8678 71.2735 81.5004 70.9071L74.8928 64.3157C80.9346 60.953 87.7498 59.1826 94.7217 59.1826C110.565 59.1826 125.108 68.4742 131.774 82.8543C132.105 83.5672 132.81 83.9864 133.547 83.9864C133.822 83.9864 134.102 83.928 134.367 83.8047C135.346 83.351 135.771 82.1901 135.318 81.2116C131.779 73.5772 126.173 67.1078 119.106 62.5032C111.851 57.7756 103.419 55.277 94.7219 55.277C86.7098 55.277 78.8844 57.4115 72.027 61.4569L66.4064 55.8494C65.8473 55.2918 65.0078 55.1254 64.2787 55.4281C63.5494 55.7307 63.0744 56.4424 63.0744 57.2319V68.2996H51.9725C51.1832 68.2996 50.4719 68.7744 50.1691 69.503C49.8664 70.2317 50.0316 71.0707 50.5883 71.6301L56.2002 77.2686C52.1416 84.1352 50 91.9729 50 99.9989C50 111.945 54.652 123.175 63.0988 131.622C71.5457 140.069 82.7766 144.721 94.7223 144.721L143.668 144.723C146.125 144.723 148.123 142.725 148.123 140.268V119.267C149.334 117.974 150 116.297 150 114.517V102.54C150 101.462 149.126 100.587 148.047 100.587ZM66.9801 61.9387L78.1687 73.0996V80.659L66.9801 69.4451V61.9387ZM64.217 72.2057L75.4068 83.4284H67.8412L56.6715 72.2057H64.217V72.2057ZM112.848 96.8911H129.448V100.587H112.848V96.8911ZM144.217 131.442H131.401C130.323 131.442 129.448 132.316 129.448 133.395C129.448 134.473 130.323 135.348 131.401 135.348H144.217V140.268C144.217 140.571 143.971 140.817 143.668 140.817H101.023C101.009 140.817 100.995 140.815 100.981 140.815H98.6078C98.3146 140.804 98.0793 140.564 98.0793 140.268V121.376C98.4615 121.441 98.8537 121.477 99.2541 121.477H115.36C115.707 124.365 118.17 126.61 121.148 126.61C124.132 126.61 126.598 124.357 126.938 121.464L143.038 121.474C143.04 121.474 143.041 121.474 143.043 121.474C143.44 121.474 143.833 121.439 144.217 121.374V131.442H144.217ZM119.223 120.779V117.346H123.074V120.779C123.074 121.841 122.21 122.704 121.149 122.704C120.087 122.704 119.223 121.841 119.223 120.779ZM146.094 114.517C146.094 115.332 145.777 116.099 145.2 116.675C144.623 117.251 143.857 117.568 143.043 117.568C143.042 117.568 143.041 117.568 143.041 117.568L126.98 117.558V115.768C126.98 114.485 125.935 113.44 124.651 113.44H117.645C116.362 113.44 115.317 114.484 115.317 115.768V117.572H99.2541C97.5715 117.572 96.2027 116.203 96.2027 114.52V104.493H146.094V114.517H146.094Z" fill="#12355B"/>
<path d="M123.214 132.014C122.85 131.651 122.346 131.442 121.833 131.442C121.317 131.442 120.816 131.651 120.45 132.014C120.087 132.377 119.88 132.881 119.88 133.395C119.88 133.908 120.087 134.412 120.45 134.775C120.816 135.138 121.318 135.348 121.833 135.348C122.347 135.348 122.849 135.139 123.214 134.775C123.577 134.412 123.786 133.908 123.786 133.395C123.786 132.881 123.577 132.377 123.214 132.014Z" fill="#12355B"/>
<defs>
<linearGradient id="paint0_linear_1570_317" x1="18.3333" y1="10.5769" x2="174.999" y2="207.798" gradientUnits="userSpaceOnUse">
<stop stop-color="#FAF8D4"/>
<stop offset="1" stop-color="#D49FBF"/>
</linearGradient>
</defs>
</svg>
