<svg width="200" height="200" viewBox="0 0 200 200" fill="none" xmlns="http://www.w3.org/2000/svg">
<g opacity="0.3">
<ellipse cx="100" cy="100" rx="100" ry="100" fill="url(#paint0_linear_1570_353)"/>
<ellipse cx="100" cy="100" rx="100" ry="100" fill="white" fill-opacity="0.75"/>
</g>
<g clip-path="url(#clip0_1570_353)">
<path d="M144.685 138.776L131.185 125.276C130.395 124.486 129.346 124.052 128.23 124.052C127.574 124.052 126.941 124.203 126.371 124.487L122.915 121.032C125.712 117.802 127.406 113.592 127.406 108.994C127.406 98.8423 119.146 90.5831 108.994 90.5831C98.8421 90.5831 90.5829 98.8423 90.5829 108.994C90.5829 119.147 98.8423 127.406 108.994 127.406C113.592 127.406 117.802 125.712 121.032 122.915L124.487 126.371C124.203 126.941 124.052 127.574 124.052 128.23C124.052 129.346 124.486 130.396 125.276 131.185L138.776 144.685C139.565 145.475 140.615 145.909 141.731 145.909C142.847 145.909 143.896 145.475 144.685 144.686C145.474 143.896 145.909 142.847 145.909 141.731C145.909 140.615 145.474 139.565 144.685 138.776ZM93.2463 108.994C93.2463 100.311 100.311 93.2464 108.994 93.2464C117.678 93.2464 124.743 100.311 124.743 108.994C124.743 117.678 117.678 124.743 108.994 124.743C100.311 124.743 93.2463 117.678 93.2463 108.994ZM126.715 128.23C126.715 127.826 126.873 127.445 127.159 127.159C127.445 126.873 127.825 126.715 128.23 126.715C128.635 126.715 129.015 126.873 129.301 127.159L130.474 128.331L128.331 130.474L127.159 129.301C126.873 129.015 126.715 128.635 126.715 128.23ZM142.802 142.802C142.802 142.802 142.802 142.802 142.802 142.802C142.516 143.088 142.135 143.246 141.731 143.246C141.326 143.246 140.946 143.088 140.66 142.802L130.215 132.357L132.357 130.215L142.802 140.66C143.088 140.946 143.246 141.326 143.246 141.731C143.246 142.135 143.088 142.516 142.802 142.802Z" fill="#12355B"/>
<path d="M108.994 96.2762C106.735 96.2762 104.503 96.8885 102.542 98.0468C101.909 98.4208 101.699 99.2375 102.073 99.8707C102.447 100.504 103.263 100.714 103.896 100.34C105.448 99.424 107.211 98.9396 108.994 98.9396C114.539 98.9396 119.049 103.45 119.049 108.994C119.049 110.778 118.565 112.541 117.649 114.092C117.275 114.726 117.485 115.542 118.118 115.916C118.331 116.042 118.564 116.102 118.794 116.102C119.25 116.102 119.694 115.868 119.942 115.447C121.1 113.486 121.713 111.255 121.713 108.994C121.713 101.982 116.007 96.2762 108.994 96.2762Z" fill="#12355B"/>
<path d="M114.092 117.649C112.541 118.565 110.778 119.049 108.994 119.049C103.45 119.049 98.9396 114.539 98.9396 108.994C98.9396 107.21 99.424 105.447 100.34 103.896C100.714 103.263 100.504 102.446 99.8707 102.072C99.2375 101.699 98.4208 101.909 98.0468 102.542C96.8886 104.503 96.2762 106.734 96.2762 108.994C96.2762 116.007 101.982 121.713 108.994 121.713C111.255 121.713 113.486 121.1 115.447 119.942C116.08 119.568 116.29 118.751 115.916 118.118C115.542 117.485 114.726 117.275 114.092 117.649Z" fill="#12355B"/>
<path d="M74.8347 97.5163H89.6905C90.426 97.5163 91.0222 96.9201 91.0222 96.1847C91.0222 95.4492 90.426 94.853 89.6905 94.853H74.8347C68.5055 94.853 63.3565 89.7038 63.3565 83.3748V66.2033H126.166V83.3748C126.166 86.0325 125.284 88.5272 123.616 90.5886C123.154 91.1603 123.242 91.9988 123.814 92.4615C124.06 92.661 124.356 92.758 124.651 92.758C125.039 92.758 125.423 92.5891 125.687 92.2638C127.713 89.7592 128.829 86.6025 128.829 83.3748V66.2033H128.921C130.541 66.2033 131.859 67.5213 131.859 69.1415V114.688C131.859 115.931 131.072 117.045 129.9 117.459C129.207 117.704 128.844 118.465 129.089 119.158C129.334 119.852 130.095 120.215 130.788 119.97C133.022 119.18 134.522 117.058 134.522 114.688V69.1415C134.522 66.0527 132.01 63.54 128.921 63.54H108.531L106.637 57.8571C106.067 56.1481 104.474 55 102.673 55H86.8498C85.0485 55 83.4554 56.1481 82.8858 57.8571L80.9917 63.54H60.6016C57.5128 63.54 55 66.0527 55 69.1415V114.688C55 117.776 57.5128 120.289 60.6016 120.289H87.6445C88.38 120.289 88.9762 119.693 88.9762 118.958C88.9762 118.222 88.38 117.626 87.6445 117.626H60.6016C58.9814 117.626 57.6634 116.308 57.6634 114.688V69.1415C57.6634 67.5213 58.9814 66.2033 60.6016 66.2033H60.6932V83.3748C60.6932 91.1724 67.0371 97.5163 74.8347 97.5163ZM85.4126 58.6992C85.6191 58.0797 86.1967 57.6634 86.8498 57.6634H102.673C103.326 57.6634 103.903 58.0797 104.11 58.6992L105.723 63.54H83.799L85.4126 58.6992Z" fill="#12355B"/>
<path d="M89.068 80.6199C87.5488 80.6199 86.313 81.8557 86.313 83.3748V86.2214C86.313 87.7406 87.5488 88.9764 89.068 88.9764H100.455C101.974 88.9764 103.21 87.7406 103.21 86.2214V83.3748C103.21 81.8557 101.974 80.6199 100.455 80.6199H89.068ZM100.546 83.3748V86.2214C100.546 86.272 100.505 86.3131 100.455 86.3131H89.068C89.0174 86.3131 88.9764 86.272 88.9764 86.2214V83.3748C88.9764 83.3242 89.0174 83.2832 89.068 83.2832H100.455C100.505 83.2832 100.546 83.3242 100.546 83.3748Z" fill="#12355B"/>
</g>
<defs>
<linearGradient id="paint0_linear_1570_353" x1="18.3333" y1="10.5769" x2="174.999" y2="207.798" gradientUnits="userSpaceOnUse">
<stop stop-color="#D8E262"/>
<stop offset="1" stop-color="#2C4663"/>
</linearGradient>
<clipPath id="clip0_1570_353">
<rect width="90.9091" height="90.9091" fill="white" transform="translate(55 55)"/>
</clipPath>
</defs>
</svg>
