<svg width="200" height="200" viewBox="0 0 200 200" fill="none" xmlns="http://www.w3.org/2000/svg">
<g opacity="0.6">
<ellipse cx="100" cy="100" rx="100" ry="100" fill="url(#paint0_linear_1570_337)"/>
<ellipse cx="100" cy="100" rx="100" ry="100" fill="white" fill-opacity="0.75"/>
</g>
<path d="M145.733 87.1998C144.243 87.0051 142.749 86.8586 141.252 86.7576V51.4648C141.252 50.6559 140.596 50 139.787 50H133.594C132.785 50 132.129 50.6559 132.129 51.4648V53.4965C128.124 52.7561 124.606 55.6465 121.448 58.2447C117.432 61.549 113.638 64.6703 108.747 62.1209C108.227 61.8494 107.594 61.9152 107.14 62.2885C106.686 62.6617 106.499 63.2697 106.665 63.8334C106.834 64.4074 110.895 77.8904 118.918 77.8904C119.456 77.8904 120.003 77.8504 120.543 77.7717C121.344 77.6549 121.898 76.9113 121.781 76.1107C121.664 75.3102 120.92 74.7562 120.121 74.8727C119.719 74.9311 119.315 74.9607 118.918 74.9607C115.137 74.9607 112.108 69.7113 110.491 65.8236C111.108 65.9416 111.709 65.9963 112.298 65.9963C116.637 65.9959 120.25 63.0244 123.31 60.5072C126.94 57.5205 129.418 55.6535 132.129 56.5104V70.4875C129.939 69.8748 127.782 71.1908 125.814 72.392C125.554 72.551 125.288 72.7131 125.017 72.8752C124.322 73.2898 124.095 74.1893 124.51 74.8838C124.784 75.3432 125.27 75.598 125.769 75.598C126.024 75.598 126.283 75.5313 126.518 75.3908C126.798 75.2238 127.072 75.0566 127.34 74.8926C130.031 73.2498 131.031 72.8326 132.129 73.7801V86.7221C130.438 86.8225 128.751 86.9805 127.07 87.2C124.637 87.5186 122.803 89.6184 122.803 92.0842V99.9611C122.803 100.537 122.566 101.065 122.136 101.447C121.698 101.836 121.137 102.012 120.552 101.944C114.659 101.251 108.687 101.289 102.804 102.057C100.37 102.373 98.5352 104.473 98.5352 106.942V114.621C98.5352 115.204 98.282 115.757 97.8406 116.138C97.3982 116.521 96.8371 116.685 96.2621 116.6C91 115.825 85.1807 115.923 78.4693 116.898C76.0738 117.249 74.2674 119.345 74.2674 121.774V129.674C74.2674 130.25 74.0307 130.778 73.601 131.16C73.1643 131.549 72.601 131.725 72.0172 131.657C69.7803 131.393 67.5051 131.234 65.2549 131.184C64.4375 131.165 63.776 131.808 63.7582 132.617C63.7402 133.425 64.3814 134.096 65.1904 134.113C67.3479 134.161 69.5293 134.313 71.675 134.567C73.0816 134.732 74.4936 134.288 75.5482 133.35C76.5961 132.417 77.1971 131.078 77.1971 129.674V121.774C77.1971 120.789 77.9264 119.939 78.8922 119.798C85.3164 118.864 90.8584 118.766 95.8354 119.499C97.2451 119.706 98.6744 119.29 99.7555 118.356C100.842 117.418 101.465 116.057 101.465 114.621V106.942C101.465 105.941 102.202 105.09 103.182 104.963C108.827 104.225 114.556 104.188 120.21 104.854C121.615 105.019 123.028 104.575 124.083 103.636C125.131 102.704 125.732 101.364 125.732 99.9613V92.0844C125.732 91.0842 126.471 90.2334 127.449 90.1053C133.389 89.3287 139.413 89.3289 145.353 90.1053C146.332 90.2334 147.07 91.0842 147.07 92.0846V147.07H52.9297V136.654C52.9297 135.654 53.668 134.803 54.6465 134.675C56.2461 134.467 57.8639 134.313 59.4541 134.218C60.2617 134.17 60.8773 133.477 60.8293 132.669C60.7814 131.861 60.0891 131.246 59.2801 131.294C57.6215 131.392 55.935 131.553 54.2668 131.77C51.8344 132.089 50 134.188 50 136.654V148.535C50 149.344 50.6557 150 51.4648 150H148.535C149.344 150 150 149.344 150 148.535V92.084C150 89.6178 148.165 87.5182 145.733 87.1998V87.1998ZM135.059 86.6066V52.9297H138.322V86.6207C137.235 86.5918 136.146 86.5865 135.059 86.6066Z" fill="#12355B"/>
<path d="M93.0681 59.3034L97.2863 61.3674C97.8986 61.667 98.5506 61.8094 99.1947 61.8094C100.713 61.8094 102.187 61.0182 102.99 59.6274L103.206 59.253C104.35 57.2719 103.759 54.72 101.861 53.4434L97.9644 50.8225C96.9634 50.1494 95.7156 49.9196 94.5406 50.1916C93.3656 50.4639 92.3459 51.219 91.7429 52.2633L91.205 53.195C90.6019 54.2395 90.458 55.5002 90.8099 56.6539C91.1617 57.8075 91.9847 58.7731 93.0681 59.3034V59.3034ZM93.7422 54.6598L94.28 53.7282C94.4816 53.3789 94.809 53.1368 95.2017 53.0457C95.3115 53.0203 95.4217 53.0078 95.531 53.0078C95.8131 53.0078 96.0884 53.0914 96.3297 53.2535L100.226 55.8744C100.851 56.295 101.046 57.1356 100.669 57.7879C100.669 57.7879 100.669 57.7881 100.669 57.7883L100.453 58.1627C100.076 58.8153 99.2513 59.0674 98.5742 58.7358L94.356 56.6719C93.9939 56.4946 93.7297 56.1846 93.6121 55.7991C93.4943 55.4135 93.5406 55.0088 93.7422 54.6598V54.6598Z" fill="#12355B"/>
<path d="M87.5357 73.4053C88.3449 74.1609 89.4187 74.5809 90.5203 74.5809C90.6187 74.5809 90.7175 74.5776 90.8164 74.5707L95.5011 74.2492C97.7834 74.0928 99.5709 72.1783 99.5709 69.8908V69.458C99.5709 67.1705 97.7834 65.2561 95.5013 65.0996L90.8164 64.7781C89.6119 64.6965 88.4171 65.1203 87.5357 65.9436C86.6541 66.7668 86.1484 67.9305 86.1484 69.1367V70.2123C86.1484 71.4184 86.6541 72.5822 87.5357 73.4053V73.4053ZM89.0781 69.1365C89.0781 68.7334 89.2404 68.3598 89.5351 68.0848C89.8048 67.833 90.1492 67.6975 90.514 67.6975C90.5478 67.6975 90.5818 67.6986 90.6158 67.701L95.3009 68.0225C96.0525 68.074 96.6412 68.7047 96.6412 69.4582V69.891C96.6412 70.6445 96.0523 71.2752 95.3007 71.3268L90.6158 71.6483C90.2146 71.6766 89.8298 71.5395 89.5353 71.2645C89.2406 70.9893 89.0783 70.6158 89.0783 70.2127V69.1365H89.0781Z" fill="#12355B"/>
<path d="M102.99 79.7213L102.99 79.7211C101.846 77.7402 99.3416 76.976 97.2861 77.9812L93.0682 80.0455C91.9848 80.5756 91.1617 81.5414 90.81 82.6949C90.458 83.8486 90.6022 85.1094 91.2051 86.1541L91.743 87.0855C92.3459 88.1301 93.3658 88.8851 94.5406 89.1572C94.8643 89.2322 95.1936 89.2689 95.5215 89.2689C96.3844 89.2689 97.2393 89.0138 97.9645 88.5261L101.861 85.9054C103.759 84.6287 104.35 82.0767 103.206 80.0961L102.99 79.7213ZM100.226 83.4744L96.3295 86.0951C95.9951 86.3201 95.5943 86.3939 95.2018 86.3029C94.8092 86.2119 94.4817 85.9695 94.2801 85.6203L93.7422 84.689C93.5406 84.3398 93.4943 83.9351 93.6121 83.5496C93.7297 83.164 93.994 82.8541 94.3561 82.6769L98.5738 80.6129C98.7756 80.5142 98.9904 80.4672 99.2027 80.4672C99.7029 80.4672 100.188 80.7277 100.453 81.1859L100.669 81.5607C101.046 82.2133 100.851 83.0537 100.226 83.4744V83.4744Z" fill="#12355B"/>
<defs>
<linearGradient id="paint0_linear_1570_337" x1="18.3333" y1="10.5769" x2="174.999" y2="207.798" gradientUnits="userSpaceOnUse">
<stop stop-color="#D4FAEA"/>
<stop offset="1" stop-color="#B79FD4"/>
</linearGradient>
</defs>
</svg>
