<svg width="32" height="32" viewBox="0 0 32 32" fill="none" xmlns="http://www.w3.org/2000/svg">
<circle opacity="0.1" cx="16" cy="16" r="16" fill="#5832DA"/>
<path d="M22.5 10H11.5C11.2083 10.0004 10.9259 10.1027 10.7015 10.2892C10.4772 10.4756 10.3251 10.7346 10.2713 11.0213C10.0234 11.068 9.79522 11.1884 9.6168 11.3668C9.43837 11.5452 9.31797 11.7734 9.27134 12.0213C8.98461 12.0751 8.72564 12.2272 8.53917 12.4515C8.35269 12.6759 8.25041 12.9583 8.25 13.25V20.75C8.25037 21.0814 8.38219 21.3991 8.61653 21.6335C8.85087 21.8678 9.16859 21.9996 9.5 22H20.5C20.7917 21.9996 21.0741 21.8973 21.2985 21.7108C21.5228 21.5244 21.6749 21.2654 21.7287 20.9787C21.9766 20.932 22.2048 20.8116 22.3832 20.6332C22.5616 20.4548 22.682 20.2266 22.7287 19.9787C23.0154 19.9249 23.2744 19.7728 23.4608 19.5485C23.6473 19.3241 23.7496 19.0417 23.75 18.75V11.25C23.7496 10.9186 23.6178 10.6009 23.3835 10.3665C23.1491 10.1322 22.8314 10.0004 22.5 10ZM8.75 13.25C8.75022 13.0512 8.82931 12.8605 8.96992 12.7199C9.11052 12.5793 9.30116 12.5002 9.5 12.5H20.5C20.6988 12.5002 20.8895 12.5793 21.0301 12.7199C21.1707 12.8605 21.2498 13.0512 21.25 13.25V13.5H8.75V13.25ZM21.25 20.75C21.2498 20.9488 21.1707 21.1395 21.0301 21.2801C20.8895 21.4207 20.6988 21.4998 20.5 21.5H9.5C9.30116 21.4998 9.11052 21.4207 8.96992 21.2801C8.82931 21.1395 8.75022 20.9488 8.75 20.75V14H21.25V20.75ZM22.25 19.75C22.2498 19.905 22.2016 20.0562 22.1121 20.1828C22.0226 20.3094 21.8961 20.4052 21.75 20.457V13.25C21.7496 12.9186 21.6178 12.6009 21.3835 12.3665C21.1491 12.1322 20.8314 12.0004 20.5 12H9.793C9.84484 11.8539 9.94062 11.7274 10.0672 11.6379C10.1938 11.5484 10.345 11.5002 10.5 11.5H21.5C21.6988 11.5002 21.8895 11.5793 22.0301 11.7199C22.1707 11.8605 22.2498 12.0512 22.25 12.25V19.75ZM23.25 18.75C23.2498 18.905 23.2016 19.0562 23.1121 19.1828C23.0226 19.3094 22.8961 19.4052 22.75 19.457V12.25C22.7496 11.9186 22.6178 11.6009 22.3835 11.3665C22.1491 11.1322 21.8314 11.0004 21.5 11H10.793C10.8448 10.8539 10.9406 10.7274 11.0672 10.6379C11.1938 10.5484 11.345 10.5002 11.5 10.5H22.5C22.6988 10.5002 22.8895 10.5793 23.0301 10.7199C23.1707 10.8605 23.2498 11.0512 23.25 11.25V18.75Z" fill="#5832DA"/>
<path d="M9.5 13.25C9.63807 13.25 9.75 13.1381 9.75 13C9.75 12.8619 9.63807 12.75 9.5 12.75C9.36193 12.75 9.25 12.8619 9.25 13C9.25 13.1381 9.36193 13.25 9.5 13.25Z" fill="#5832DA"/>
<path d="M10.5 13.25C10.6381 13.25 10.75 13.1381 10.75 13C10.75 12.8619 10.6381 12.75 10.5 12.75C10.3619 12.75 10.25 12.8619 10.25 13C10.25 13.1381 10.3619 13.25 10.5 13.25Z" fill="#5832DA"/>
<path d="M11.5 13.25C11.6381 13.25 11.75 13.1381 11.75 13C11.75 12.8619 11.6381 12.75 11.5 12.75C11.3619 12.75 11.25 12.8619 11.25 13C11.25 13.1381 11.3619 13.25 11.5 13.25Z" fill="#5832DA"/>
<path d="M12.25 19.25H17.75C17.8163 19.25 17.8799 19.2237 17.9268 19.1768C17.9737 19.1299 18 19.0663 18 19V15C18 14.9337 17.9737 14.8701 17.9268 14.8232C17.8799 14.7763 17.8163 14.75 17.75 14.75H12.25C12.1837 14.75 12.1201 14.7763 12.0732 14.8232C12.0263 14.8701 12 14.9337 12 15V19C12 19.0663 12.0263 19.1299 12.0732 19.1768C12.1201 19.2237 12.1837 19.25 12.25 19.25ZM12.5 15.25H17.5V18.75H12.5V15.25Z" fill="#5832DA"/>
<path d="M14.3781 17.4683C14.417 17.49 14.4609 17.5009 14.5053 17.5C14.5498 17.499 14.5932 17.4862 14.6311 17.4629L15.8498 16.7129C15.8862 16.6906 15.9162 16.6592 15.937 16.622C15.9579 16.5847 15.9688 16.5427 15.9688 16.5C15.9688 16.4573 15.9579 16.4154 15.937 16.3781C15.9162 16.3408 15.8862 16.3095 15.8498 16.2871L14.6311 15.5371C14.5932 15.5138 14.5498 15.501 14.5053 15.5001C14.4608 15.4991 14.4169 15.5101 14.3781 15.5317C14.3392 15.5534 14.3069 15.5851 14.2844 15.6235C14.2619 15.6619 14.25 15.7055 14.25 15.75V17.25C14.25 17.2945 14.2619 17.3382 14.2844 17.3766C14.3069 17.4149 14.3393 17.4466 14.3781 17.4683ZM14.75 16.1974L15.2417 16.5L14.75 16.8027V16.1974Z" fill="#5832DA"/>
<path d="M16.75 17.75H16.25C16.25 17.6837 16.2237 17.6201 16.1768 17.5732C16.1299 17.5263 16.0663 17.5 16 17.5C15.9337 17.5 15.8701 17.5263 15.8232 17.5732C15.7763 17.6201 15.75 17.6837 15.75 17.75H13.25C13.1837 17.75 13.1201 17.7763 13.0732 17.8232C13.0263 17.8701 13 17.9337 13 18C13 18.0663 13.0263 18.1299 13.0732 18.1768C13.1201 18.2237 13.1837 18.25 13.25 18.25H15.75C15.75 18.3163 15.7763 18.3799 15.8232 18.4268C15.8701 18.4737 15.9337 18.5 16 18.5C16.0663 18.5 16.1299 18.4737 16.1768 18.4268C16.2237 18.3799 16.25 18.3163 16.25 18.25H16.75C16.8163 18.25 16.8799 18.2237 16.9268 18.1768C16.9737 18.1299 17 18.0663 17 18C17 17.9337 16.9737 17.8701 16.9268 17.8232C16.8799 17.7763 16.8163 17.75 16.75 17.75Z" fill="#5832DA"/>
<path d="M12.25 20H17.75C17.8163 20 17.8799 19.9737 17.9268 19.9268C17.9737 19.8799 18 19.8163 18 19.75C18 19.6837 17.9737 19.6201 17.9268 19.5732C17.8799 19.5263 17.8163 19.5 17.75 19.5H12.25C12.1837 19.5 12.1201 19.5263 12.0732 19.5732C12.0263 19.6201 12 19.6837 12 19.75C12 19.8163 12.0263 19.8799 12.0732 19.9268C12.1201 19.9737 12.1837 20 12.25 20Z" fill="#5832DA"/>
<path d="M12.25 20.75H15.75C15.8163 20.75 15.8799 20.7237 15.9268 20.6768C15.9737 20.6299 16 20.5663 16 20.5C16 20.4337 15.9737 20.3701 15.9268 20.3232C15.8799 20.2763 15.8163 20.25 15.75 20.25H12.25C12.1837 20.25 12.1201 20.2763 12.0732 20.3232C12.0263 20.3701 12 20.4337 12 20.5C12 20.5663 12.0263 20.6299 12.0732 20.6768C12.1201 20.7237 12.1837 20.75 12.25 20.75Z" fill="#5832DA"/>
<path d="M16.75 20.25H16.5C16.4337 20.25 16.3701 20.2763 16.3232 20.3232C16.2763 20.3701 16.25 20.4337 16.25 20.5C16.25 20.5663 16.2763 20.6299 16.3232 20.6768C16.3701 20.7237 16.4337 20.75 16.5 20.75H16.75C16.8163 20.75 16.8799 20.7237 16.9268 20.6768C16.9737 20.6299 17 20.5663 17 20.5C17 20.4337 16.9737 20.3701 16.9268 20.3232C16.8799 20.2763 16.8163 20.25 16.75 20.25Z" fill="#5832DA"/>
</svg>
