<svg width="16" height="12" viewBox="0 0 16 12" fill="none" xmlns="http://www.w3.org/2000/svg">
<path d="M14.5 0H3.5C3.20828 0.000409679 2.92587 0.102687 2.70154 0.289166C2.47721 0.475644 2.32505 0.734614 2.27134 1.02134C2.02336 1.06797 1.79522 1.18837 1.6168 1.3668C1.43837 1.54522 1.31797 1.77336 1.27134 2.02134C0.984614 2.07505 0.725644 2.22721 0.539166 2.45154C0.352687 2.67587 0.25041 2.95828 0.25 3.25V10.75C0.250372 11.0814 0.382188 11.3991 0.616528 11.6335C0.850867 11.8678 1.16859 11.9996 1.5 12H12.5C12.7917 11.9996 13.0741 11.8973 13.2985 11.7108C13.5228 11.5244 13.6749 11.2654 13.7287 10.9787C13.9766 10.932 14.2048 10.8116 14.3832 10.6332C14.5616 10.4548 14.682 10.2266 14.7287 9.97866C15.0154 9.92495 15.2744 9.77279 15.4608 9.54846C15.6473 9.32413 15.7496 9.04172 15.75 8.75V1.25C15.7496 0.918594 15.6178 0.600867 15.3835 0.366528C15.1491 0.132188 14.8314 0.000372204 14.5 0ZM0.75 3.25C0.750223 3.05116 0.829313 2.86052 0.969917 2.71992C1.11052 2.57931 1.30116 2.50022 1.5 2.5H12.5C12.6988 2.50022 12.8895 2.57931 13.0301 2.71992C13.1707 2.86052 13.2498 3.05116 13.25 3.25V3.5H0.75V3.25ZM13.25 10.75C13.2498 10.9488 13.1707 11.1395 13.0301 11.2801C12.8895 11.4207 12.6988 11.4998 12.5 11.5H1.5C1.30116 11.4998 1.11052 11.4207 0.969917 11.2801C0.829313 11.1395 0.750223 10.9488 0.75 10.75V4H13.25V10.75ZM14.25 9.75C14.2498 9.90504 14.2016 10.0562 14.1121 10.1828C14.0226 10.3094 13.8961 10.4052 13.75 10.457V3.25C13.7496 2.91859 13.6178 2.60087 13.3835 2.36653C13.1491 2.13219 12.8314 2.00037 12.5 2H1.793C1.84484 1.85389 1.94062 1.7274 2.0672 1.63788C2.19378 1.54836 2.34496 1.5002 2.5 1.5H13.5C13.6988 1.50022 13.8895 1.57931 14.0301 1.71992C14.1707 1.86052 14.2498 2.05116 14.25 2.25V9.75ZM15.25 8.75C15.2498 8.90504 15.2016 9.05622 15.1121 9.1828C15.0226 9.30938 14.8961 9.40516 14.75 9.457V2.25C14.7496 1.91859 14.6178 1.60087 14.3835 1.36653C14.1491 1.13219 13.8314 1.00037 13.5 1H2.793C2.84484 0.853888 2.94062 0.727395 3.0672 0.637876C3.19378 0.548356 3.34496 0.500195 3.5 0.5H14.5C14.6988 0.500223 14.8895 0.579313 15.0301 0.719917C15.1707 0.86052 15.2498 1.05116 15.25 1.25V8.75Z" fill="#5832DA"/>
<path d="M1.5 3.25C1.63807 3.25 1.75 3.13807 1.75 3C1.75 2.86193 1.63807 2.75 1.5 2.75C1.36193 2.75 1.25 2.86193 1.25 3C1.25 3.13807 1.36193 3.25 1.5 3.25Z" fill="#5832DA"/>
<path d="M2.5 3.25C2.63807 3.25 2.75 3.13807 2.75 3C2.75 2.86193 2.63807 2.75 2.5 2.75C2.36193 2.75 2.25 2.86193 2.25 3C2.25 3.13807 2.36193 3.25 2.5 3.25Z" fill="#5832DA"/>
<path d="M3.5 3.25C3.63807 3.25 3.75 3.13807 3.75 3C3.75 2.86193 3.63807 2.75 3.5 2.75C3.36193 2.75 3.25 2.86193 3.25 3C3.25 3.13807 3.36193 3.25 3.5 3.25Z" fill="#5832DA"/>
<path d="M4.25 9.25H9.75C9.8163 9.25 9.87989 9.22366 9.92678 9.17678C9.97366 9.12989 10 9.0663 10 9V5C10 4.9337 9.97366 4.87011 9.92678 4.82322C9.87989 4.77634 9.8163 4.75 9.75 4.75H4.25C4.1837 4.75 4.12011 4.77634 4.07322 4.82322C4.02634 4.87011 4 4.9337 4 5V9C4 9.0663 4.02634 9.12989 4.07322 9.17678C4.12011 9.22366 4.1837 9.25 4.25 9.25ZM4.5 5.25H9.5V8.75H4.5V5.25Z" fill="#5832DA"/>
<path d="M6.37813 7.46825C6.41695 7.48995 6.46086 7.5009 6.50533 7.49996C6.5498 7.49903 6.59321 7.48625 6.63109 7.46294L7.84984 6.71294C7.8862 6.69056 7.91622 6.65925 7.93705 6.62198C7.95787 6.58471 7.96881 6.54273 7.96881 6.50003C7.96881 6.45734 7.95787 6.41536 7.93705 6.37809C7.91622 6.34082 7.8862 6.30951 7.84984 6.28713L6.63109 5.53713C6.59321 5.5138 6.54979 5.501 6.50531 5.50006C6.46083 5.49911 6.41691 5.51005 6.37807 5.53175C6.33923 5.55345 6.30689 5.58512 6.28437 5.62349C6.26186 5.66186 6.24999 5.70555 6.25 5.75003V7.25003C6.25001 7.29452 6.26189 7.33819 6.28441 7.37655C6.30694 7.41491 6.33929 7.44657 6.37813 7.46825ZM6.75 6.19741L7.24175 6.50003L6.75 6.80266V6.19741Z" fill="#5832DA"/>
<path d="M8.75 7.75H8.25C8.25 7.6837 8.22366 7.62011 8.17678 7.57322C8.12989 7.52634 8.0663 7.5 8 7.5C7.9337 7.5 7.87011 7.52634 7.82322 7.57322C7.77634 7.62011 7.75 7.6837 7.75 7.75H5.25C5.1837 7.75 5.12011 7.77634 5.07322 7.82322C5.02634 7.87011 5 7.9337 5 8C5 8.0663 5.02634 8.12989 5.07322 8.17678C5.12011 8.22366 5.1837 8.25 5.25 8.25H7.75C7.75 8.3163 7.77634 8.37989 7.82322 8.42678C7.87011 8.47366 7.9337 8.5 8 8.5C8.0663 8.5 8.12989 8.47366 8.17678 8.42678C8.22366 8.37989 8.25 8.3163 8.25 8.25H8.75C8.8163 8.25 8.87989 8.22366 8.92678 8.17678C8.97366 8.12989 9 8.0663 9 8C9 7.9337 8.97366 7.87011 8.92678 7.82322C8.87989 7.77634 8.8163 7.75 8.75 7.75Z" fill="#5832DA"/>
<path d="M4.25 10H9.75C9.8163 10 9.87989 9.97366 9.92678 9.92678C9.97366 9.87989 10 9.8163 10 9.75C10 9.6837 9.97366 9.62011 9.92678 9.57322C9.87989 9.52634 9.8163 9.5 9.75 9.5H4.25C4.1837 9.5 4.12011 9.52634 4.07322 9.57322C4.02634 9.62011 4 9.6837 4 9.75C4 9.8163 4.02634 9.87989 4.07322 9.92678C4.12011 9.97366 4.1837 10 4.25 10Z" fill="#5832DA"/>
<path d="M4.25 10.75H7.75C7.8163 10.75 7.87989 10.7237 7.92678 10.6768C7.97366 10.6299 8 10.5663 8 10.5C8 10.4337 7.97366 10.3701 7.92678 10.3232C7.87989 10.2763 7.8163 10.25 7.75 10.25H4.25C4.1837 10.25 4.12011 10.2763 4.07322 10.3232C4.02634 10.3701 4 10.4337 4 10.5C4 10.5663 4.02634 10.6299 4.07322 10.6768C4.12011 10.7237 4.1837 10.75 4.25 10.75Z" fill="#5832DA"/>
<path d="M8.75 10.25H8.5C8.4337 10.25 8.37011 10.2763 8.32322 10.3232C8.27634 10.3701 8.25 10.4337 8.25 10.5C8.25 10.5663 8.27634 10.6299 8.32322 10.6768C8.37011 10.7237 8.4337 10.75 8.5 10.75H8.75C8.8163 10.75 8.87989 10.7237 8.92678 10.6768C8.97366 10.6299 9 10.5663 9 10.5C9 10.4337 8.97366 10.3701 8.92678 10.3232C8.87989 10.2763 8.8163 10.25 8.75 10.25Z" fill="#5832DA"/>
</svg>
