<svg width="128" height="16" viewBox="0 0 128 16" fill="none" xmlns="http://www.w3.org/2000/svg">
<path opacity="0.2" fill-rule="evenodd" clip-rule="evenodd" d="M125.376 9.7648C125.035 10.1112 124.879 10.6104 124.959 11.1L125.475 14.2328C125.636 15.208 124.892 16 124.048 16C123.826 16 123.596 15.9448 123.374 15.8232L120.674 14.344C120.463 14.2288 120.231 14.1712 119.999 14.1712C119.768 14.1712 119.537 14.2288 119.326 14.344L116.626 15.8232C116.403 15.9448 116.174 16 115.951 16C115.107 16 114.363 15.208 114.524 14.2328L115.04 11.1C115.12 10.6104 114.965 10.1112 114.623 9.7648L112.439 7.5464C111.579 6.6736 112.054 5.1528 113.241 4.9728L116.26 4.516C116.732 4.4448 117.14 4.136 117.351 3.6904L118.701 0.8408C118.967 0.28 119.483 0 119.999 0C120.516 0 121.033 0.28 121.299 0.8408L122.649 3.6904C122.859 4.136 123.267 4.4448 123.739 4.516L126.759 4.9728C127.946 5.1528 128.42 6.6736 127.561 7.5464L125.376 9.7648Z" fill="#12355B"/>
<path fill-rule="evenodd" clip-rule="evenodd" d="M120 0V14.1712C120 14.1712 119.688 14.2288 119.468 14.344L116.828 15.8232C116.597 15.9448 116.358 16 116.126 16C115.248 16 114.473 15.208 114.64 14.2328L115.175 11.1008C115.259 10.6112 115.094 10.112 114.74 9.7648L112.46 7.5464C111.565 6.6736 112.048 5.1528 113.285 4.9736L116.406 4.516C116.897 4.4448 117.279 4.136 117.498 3.6912L118.819 0.8408C119.095 0.28 119.201 0 120 0Z" fill="#12355B"/>
<path fill-rule="evenodd" clip-rule="evenodd" d="M69.3763 9.7648C69.0347 10.1112 68.8795 10.6104 68.9595 11.1L69.4755 14.2328C69.6363 15.208 68.8923 16 68.0483 16C67.8259 16 67.5963 15.9448 67.3739 15.8232L64.6739 14.344C64.4627 14.2288 64.2315 14.1712 63.9995 14.1712C63.7683 14.1712 63.5371 14.2288 63.3259 14.344L60.6259 15.8232C60.4035 15.9448 60.1739 16 59.9515 16C59.1075 16 58.3635 15.208 58.5243 14.2328L59.0403 11.1C59.1203 10.6104 58.9651 10.1112 58.6235 9.7648L56.4387 7.5464C55.5795 6.6736 56.0539 5.1528 57.2411 4.9728L60.2603 4.516C60.7323 4.4448 61.1403 4.136 61.3507 3.6904L62.7011 0.8408C62.9667 0.28 63.4835 0 63.9995 0C64.5163 0 65.0331 0.28 65.2987 0.8408L66.6491 3.6904C66.8595 4.136 67.2675 4.4448 67.7395 4.516L70.7587 4.9728C71.9459 5.1528 72.4203 6.6736 71.5611 7.5464L69.3763 9.7648Z" fill="#12355B"/>
<path fill-rule="evenodd" clip-rule="evenodd" d="M97.3763 9.7648C97.0347 10.1112 96.8795 10.6104 96.9595 11.1L97.4755 14.2328C97.6363 15.208 96.8923 16 96.0483 16C95.8259 16 95.5963 15.9448 95.3739 15.8232L92.6739 14.344C92.4627 14.2288 92.2315 14.1712 91.9995 14.1712C91.7683 14.1712 91.5371 14.2288 91.3259 14.344L88.6259 15.8232C88.4035 15.9448 88.1739 16 87.9515 16C87.1075 16 86.3635 15.208 86.5243 14.2328L87.0403 11.1C87.1203 10.6104 86.9651 10.1112 86.6235 9.7648L84.4387 7.5464C83.5795 6.6736 84.0539 5.1528 85.2411 4.9728L88.2603 4.516C88.7323 4.4448 89.1403 4.136 89.3507 3.6904L90.7011 0.8408C90.9667 0.28 91.4835 0 91.9995 0C92.5163 0 93.0331 0.28 93.2987 0.8408L94.6491 3.6904C94.8595 4.136 95.2675 4.4448 95.7395 4.516L98.7587 4.9728C99.9459 5.1528 100.42 6.6736 99.5611 7.5464L97.3763 9.7648Z" fill="#12355B"/>
<path fill-rule="evenodd" clip-rule="evenodd" d="M41.3763 9.7648C41.0347 10.1112 40.8795 10.6104 40.9595 11.1L41.4755 14.2328C41.6363 15.208 40.8923 16 40.0483 16C39.8259 16 39.5963 15.9448 39.3739 15.8232L36.6739 14.344C36.4627 14.2288 36.2315 14.1712 35.9995 14.1712C35.7683 14.1712 35.5371 14.2288 35.3259 14.344L32.6259 15.8232C32.4035 15.9448 32.1739 16 31.9515 16C31.1075 16 30.3635 15.208 30.5243 14.2328L31.0403 11.1C31.1203 10.6104 30.9651 10.1112 30.6235 9.7648L28.4387 7.5464C27.5795 6.6736 28.0539 5.1528 29.2411 4.9728L32.2603 4.516C32.7323 4.4448 33.1403 4.136 33.3507 3.6904L34.7011 0.8408C34.9667 0.28 35.4835 0 35.9995 0C36.5163 0 37.0331 0.28 37.2987 0.8408L38.6491 3.6904C38.8595 4.136 39.2675 4.4448 39.7395 4.516L42.7587 4.9728C43.9459 5.1528 44.4203 6.6736 43.5611 7.5464L41.3763 9.7648Z" fill="#12355B"/>
<path fill-rule="evenodd" clip-rule="evenodd" d="M13.3763 9.7648C13.0347 10.1112 12.8795 10.6104 12.9595 11.1L13.4755 14.2328C13.6363 15.208 12.8923 16 12.0483 16C11.8259 16 11.5963 15.9448 11.3739 15.8232L8.67387 14.344C8.46268 14.2288 8.23147 14.1712 7.99948 14.1712C7.76828 14.1712 7.53708 14.2288 7.32588 14.344L4.62588 15.8232C4.40348 15.9448 4.17388 16 3.95148 16C3.10748 16 2.36348 15.208 2.52428 14.2328L3.04028 11.1C3.12028 10.6104 2.96508 10.1112 2.62348 9.7648L0.43868 7.5464C-0.420519 6.6736 0.0538808 5.1528 1.24108 4.9728L4.26028 4.516C4.73228 4.4448 5.14028 4.136 5.35068 3.6904L6.70108 0.8408C6.96668 0.28 7.48348 0 7.99948 0C8.51627 0 9.03308 0.28 9.29867 0.8408L10.6491 3.6904C10.8595 4.136 11.2675 4.4448 11.7395 4.516L14.7587 4.9728C15.9459 5.1528 16.4203 6.6736 15.5611 7.5464L13.3763 9.7648Z" fill="#12355B"/>
</svg>
