<svg width="48" height="48" viewBox="0 0 48 48" fill="none" xmlns="http://www.w3.org/2000/svg">
<circle opacity="0.1" cx="24" cy="24" r="24" fill="#C07654"/>
<path fill-rule="evenodd" clip-rule="evenodd" d="M28.0324 25.3237C27.7762 25.5835 27.6598 25.9579 27.7198 26.3251L28.1068 28.6748C28.2274 29.4062 27.6694 30.0002 27.0364 30.0002C26.8696 30.0002 26.6974 29.9588 26.5306 29.8676L24.5056 28.7582C24.3472 28.6718 24.1738 28.6286 23.9998 28.6286C23.8264 28.6286 23.653 28.6718 23.4946 28.7582L21.4695 29.8676C21.3027 29.9588 21.1305 30.0002 20.9637 30.0002C20.3307 30.0002 19.7727 29.4062 19.8933 28.6748L20.2803 26.3251C20.3403 25.9579 20.2239 25.5835 19.9677 25.3237L18.3291 23.6599C17.6847 23.0053 18.0405 21.8647 18.9309 21.7297L21.1953 21.3871C21.5493 21.3336 21.8553 21.102 22.0131 20.7678L23.0259 18.6306C23.2251 18.21 23.6128 18 23.9998 18C24.3874 18 24.775 18.21 24.9742 18.6306L25.987 20.7678C26.1448 21.102 26.4508 21.3336 26.8048 21.3871L29.0692 21.7297C29.9596 21.8647 30.3155 23.0053 29.671 23.6599L28.0324 25.3237Z" fill="#C07654"/>
</svg>
